  0
SECTION
  2
HEADER
  9
$ACADVER
  1
AC1014
  9
$HANDSEED
  5
FFFF
  9
$MEASUREMENT
 70
     1
  0
ENDSEC
  0
SECTION
  2
TABLES
  0
TABLE
  2
VPORT
  5
8
330
0
100
AcDbSymbolTable
 70
     4
  0
VPORT
  5
2E
330
8
100
AcDbSymbolTableRecord
100
AcDbViewportTableRecord
  2
*ACTIVE
 70
     0
 10
0.0
 20
0.0
 11
1.0
 21
1.0
 12
210.0
 22
148.5
 13
0.0
 23
0.0
 14
10.0
 24
10.0
 15
10.0
 25
10.0
 16
0.0
 26
0.0
 36
1.0
 17
0.0
 27
0.0
 37
0.0
 40
341.0
 41
1.24
 42
50.0
 43
0.0
 44
0.0
 50
0.0
 51
0.0
 71
     0
 72
   100
 73
     1
 74
     3
 75
     0
 76
     0
 77
     0
 78
     0
  0
ENDTAB
  0
TABLE
  2
LTYPE
  5
5
330
0
100
AcDbSymbolTable
 70
     1
  0
LTYPE
  5
14
330
5
100
AcDbSymbolTableRecord
100
AcDbLinetypeTableRecord
  2
BYBLOCK
 70
     0
  3

 72
    65
 73
     0
 40
0.0
  0
LTYPE
  5
15
330
5
100
AcDbSymbolTableRecord
100
AcDbLinetypeTableRecord
  2
BYLAYER
 70
     0
  3

 72
    65
 73
     0
 40
0.0
  0
LTYPE
  5
16
330
5
100
AcDbSymbolTableRecord
100
AcDbLinetypeTableRecord
  2
CONTINUOUS
 70
     0
  3
Solid line
 72
    65
 73
     0
 40
0.0
  0
ENDTAB
  0
TABLE
  2
LAYER
  5
2
100
AcDbSymbolTable
 70
2
  0
LAYER
  5
50
100
AcDbSymbolTableRecord
100
AcDbLayerTableRecord
  2
0
 70
0
  6
CONTINUOUS
  0
LAYER
  5
51
100
AcDbSymbolTableRecord
100
AcDbLayerTableRecord
  2
View
 70
0
  6
CONTINUOUS
  0
ENDTAB
  0
TABLE
  2
STYLE
  5
3
330
0
100
AcDbSymbolTable
 70
     1
  0
STYLE
  5
11
330
3
100
AcDbSymbolTableRecord
100
AcDbTextStyleTableRecord
  2
STANDARD
 70
     0
 40
0.0
 41
1.0
 50
0.0
 71
     0
 42
2.5
  3
txt
  4

  0
ENDTAB
  0
TABLE
  2
VIEW
  5
6
330
0
100
AcDbSymbolTable
 70
     0
  0
ENDTAB
  0
TABLE
  2
UCS
  5
7
330
0
100
AcDbSymbolTable
 70
     0
  0
ENDTAB
  0
TABLE
  2
APPID
  5
9
330
0
100
AcDbSymbolTable
 70
     2
  0
APPID
  5
12
330
9
100
AcDbSymbolTableRecord
100
AcDbRegAppTableRecord
  2
ACAD
 70
     0
  0
ENDTAB
  0
TABLE
  2
DIMSTYLE
  5
A
330
0
100
AcDbSymbolTable
 70
     1
  0
DIMSTYLE
105
27
330
A
100
AcDbSymbolTableRecord
100
AcDbDimStyleTableRecord
  2
ISO-25
 70
     0
  3

  4

  5

  6

  7

 40
1.0
 41
2.5
 42
0.625
 43
3.75
 44
1.25
 45
0.0
 46
0.0
 47
0.0
 48
0.0
140
2.5
141
2.5
142
0.0
143
0.03937007874016
144
1.0
145
0.0
146
1.0
147
0.625
 71
     0
 72
     0
 73
     0
 74
     0
 75
     0
 76
     0
 77
     1
 78
     8
170
     0
171
     3
172
     1
173
     0
174
     0
175
     0
176
     0
177
     0
178
     0
270
     2
271
     2
272
     2
273
     2
274
     3
340
11
275
     0
280
     0
281
     0
282
     0
283
     0
284
     8
285
     0
286
     0
287
     3
288
     0
  0
ENDTAB
  0
TABLE
  2
BLOCK_RECORD
  5
1
330
0
100
AcDbSymbolTable
 70
     1
  0
BLOCK_RECORD
  5
1F
330
1
100
AcDbSymbolTableRecord
100
AcDbBlockTableRecord
  2
*MODEL_SPACE
  0
BLOCK_RECORD
  5
1B
330
1
100
AcDbSymbolTableRecord
100
AcDbBlockTableRecord
  2
*PAPER_SPACE
  0
ENDTAB
  0
ENDSEC
  0
SECTION
  2
BLOCKS
  0
BLOCK
  5
20
330
1F
100
AcDbEntity
  8
0
100
AcDbBlockBegin
  2
*MODEL_SPACE
 70
     0
 10
0.0
 20
0.0
 30
0.0
  3
*MODEL_SPACE
  1

  0
ENDBLK
  5
21
330
1F
100
AcDbEntity
  8
0
100
AcDbBlockEnd
  0
BLOCK
  5
1C
330
1B
100
AcDbEntity
 67
     1
  8
0
100
AcDbBlockBegin
  2
*PAPER_SPACE
  1

  0
ENDBLK
  5
1D
330
1B
100
AcDbEntity
 67
     1
  8
0
100
AcDbBlockEnd
  0
ENDSEC
  0
SECTION
  2
ENTITIES
  0
LWPOLYLINE
  5
100
100
AcDbEntity
  8
View
 62
7
100
AcDbPolyline
 90
4
 70
0
 10
51.921400
 20
224.356000
 30
0.0
 10
28.429600
 20
36.764300
 30
0.0
 10
64.231900
 20
23.733400
 30
0.0
 10
65.317800
 20
26.716900
 30
0.0
  0
LWPOLYLINE
  5
101
100
AcDbEntity
  8
View
 62
7
100
AcDbPolyline
 90
2
 70
0
 10
72.300000
 20
26.716900
 30
0.0
 10
65.317800
 20
26.716900
 30
0.0
  0
LWPOLYLINE
  5
102
100
AcDbEntity
  8
View
 62
7
100
AcDbPolyline
 90
4
 70
0
 10
72.300000
 20
26.716900
 30
0.0
 10
72.300000
 20
18.183100
 30
0.0
 10
69.125000
 20
18.183100
 30
0.0
 10
69.125000
 20
-19.916900
 30
0.0
  0
LWPOLYLINE
  5
103
100
AcDbEntity
  8
View
 62
7
100
AcDbPolyline
 90
2
 70
0
 10
227.875000
 20
-19.916900
 30
0.0
 10
69.125000
 20
-19.916900
 30
0.0
  0
LWPOLYLINE
  5
104
100
AcDbEntity
  8
View
 62
7
100
AcDbPolyline
 90
2
 70
0
 10
227.875000
 20
-19.916900
 30
0.0
 10
227.875000
 20
18.183100
 30
0.0
  0
LWPOLYLINE
  5
105
100
AcDbEntity
  8
View
 62
7
100
AcDbPolyline
 90
2
 70
0
 10
224.700000
 20
18.183100
 30
0.0
 10
227.875000
 20
18.183100
 30
0.0
  0
LWPOLYLINE
  5
106
100
AcDbEntity
  8
View
 62
7
100
AcDbPolyline
 90
2
 70
0
 10
224.700000
 20
18.183100
 30
0.0
 10
224.700000
 20
26.716900
 30
0.0
  0
LWPOLYLINE
  5
107
100
AcDbEntity
  8
View
 62
7
100
AcDbPolyline
 90
2
 70
0
 10
231.682000
 20
26.716900
 30
0.0
 10
224.700000
 20
26.716900
 30
0.0
  0
LWPOLYLINE
  5
108
100
AcDbEntity
  8
View
 62
7
100
AcDbPolyline
 90
2
 70
0
 10
232.768000
 20
23.733400
 30
0.0
 10
231.682000
 20
26.716900
 30
0.0
  0
LWPOLYLINE
  5
109
100
AcDbEntity
  8
View
 62
7
100
AcDbPolyline
 90
2
 70
0
 10
268.570000
 20
36.764300
 30
0.0
 10
232.768000
 20
23.733400
 30
0.0
  0
SPLINE
  5
10a
100
AcDbEntity
  8
View
 62
7
100
AcDbSpline
 70
8
 71
3
 72
8
 73
4
 74
0
 40
0
 40
0
 40
0
 40
0
 40
1
 40
1
 40
1
 40
1
 10
245.078787
 20
224.356038
 30
0.0
 10
244.680924
 20
227.533132
 30
0.0
 10
241.979908
 20
229.917000
 30
0.0
 10
238.778000
 20
229.917000
 30
0.0
  0
LWPOLYLINE
  5
10b
100
AcDbEntity
  8
View
 62
7
100
AcDbPolyline
 90
2
 70
0
 10
245.079000
 20
224.356000
 30
0.0
 10
268.570000
 20
36.764300
 30
0.0
  0
SPLINE
  5
10c
100
AcDbEntity
  8
View
 62
7
100
AcDbSpline
 70
8
 71
3
 72
8
 73
4
 74
0
 40
0
 40
0
 40
0
 40
0
 40
1
 40
1
 40
1
 40
1
 10
58.222200
 20
229.917000
 30
0.0
 10
55.020295
 20
229.917000
 30
0.0
 10
52.319282
 20
227.533137
 30
0.0
 10
51.921414
 20
224.356048
 30
0.0
  0
SPLINE
  5
10d
100
AcDbEntity
  8
View
 62
7
100
AcDbSpline
 70
8
 71
3
 72
8
 73
4
 74
0
 40
0
 40
0
 40
0
 40
0
 40
1
 40
1
 40
1
 40
1
 10
135.800000
 20
-4.835644
 30
0.0
 10
137.217898
 20
-4.835644
 30
0.0
 10
138.528090
 20
-4.079205
 30
0.0
 10
139.237038
 20
-2.851269
 30
0.0
  0
SPLINE
  5
10e
100
AcDbEntity
  8
View
 62
7
100
AcDbSpline
 70
8
 71
3
 72
8
 73
4
 74
0
 40
0
 40
0
 40
0
 40
0
 40
1
 40
1
 40
1
 40
1
 10
139.237038
 20
-2.851269
 30
0.0
 10
139.945987
 20
-1.623334
 30
0.0
 10
139.945987
 20
-0.110455
 30
0.0
 10
139.237038
 20
1.117481
 30
0.0
  0
SPLINE
  5
10f
100
AcDbEntity
  8
View
 62
7
100
AcDbSpline
 70
8
 71
3
 72
8
 73
4
 74
0
 40
0
 40
0
 40
0
 40
0
 40
1
 40
1
 40
1
 40
1
 10
139.237038
 20
1.117481
 30
0.0
 10
138.528090
 20
2.345416
 30
0.0
 10
137.217898
 20
3.101856
 30
0.0
 10
135.800000
 20
3.101856
 30
0.0
  0
LWPOLYLINE
  5
110
100
AcDbEntity
  8
View
 62
7
100
AcDbPolyline
 90
2
 70
0
 10
238.778000
 20
229.917000
 30
0.0
 10
58.222200
 20
229.917000
 30
0.0
  0
SPLINE
  5
111
100
AcDbEntity
  8
View
 62
7
100
AcDbSpline
 70
8
 71
3
 72
8
 73
4
 74
0
 40
0
 40
0
 40
0
 40
0
 40
1
 40
1
 40
1
 40
1
 10
85.000000
 20
3.101856
 30
0.0
 10
83.582102
 20
3.101856
 30
0.0
 10
82.271911
 20
2.345416
 30
0.0
 10
81.562962
 20
1.117481
 30
0.0
  0
SPLINE
  5
112
100
AcDbEntity
  8
View
 62
7
100
AcDbSpline
 70
8
 71
3
 72
8
 73
4
 74
0
 40
0
 40
0
 40
0
 40
0
 40
1
 40
1
 40
1
 40
1
 10
81.562962
 20
1.117481
 30
0.0
 10
80.854013
 20
-0.110455
 30
0.0
 10
80.854013
 20
-1.623334
 30
0.0
 10
81.562962
 20
-2.851269
 30
0.0
  0
SPLINE
  5
113
100
AcDbEntity
  8
View
 62
7
100
AcDbSpline
 70
8
 71
3
 72
8
 73
4
 74
0
 40
0
 40
0
 40
0
 40
0
 40
1
 40
1
 40
1
 40
1
 10
81.562962
 20
-2.851269
 30
0.0
 10
82.271911
 20
-4.079205
 30
0.0
 10
83.582102
 20
-4.835644
 30
0.0
 10
85.000000
 20
-4.835644
 30
0.0
  0
LWPOLYLINE
  5
114
100
AcDbEntity
  8
View
 62
7
100
AcDbPolyline
 90
2
 70
0
 10
135.800000
 20
3.101860
 30
0.0
 10
85.000000
 20
3.101860
 30
0.0
  0
SPLINE
  5
115
100
AcDbEntity
  8
View
 62
7
100
AcDbSpline
 70
8
 71
3
 72
8
 73
4
 74
0
 40
0
 40
0
 40
0
 40
0
 40
1
 40
1
 40
1
 40
1
 10
212.000000
 20
-4.835644
 30
0.0
 10
213.417898
 20
-4.835644
 30
0.0
 10
214.728090
 20
-4.079205
 30
0.0
 10
215.437038
 20
-2.851269
 30
0.0
  0
SPLINE
  5
116
100
AcDbEntity
  8
View
 62
7
100
AcDbSpline
 70
8
 71
3
 72
8
 73
4
 74
0
 40
0
 40
0
 40
0
 40
0
 40
1
 40
1
 40
1
 40
1
 10
215.437038
 20
-2.851269
 30
0.0
 10
216.145987
 20
-1.623334
 30
0.0
 10
216.145987
 20
-0.110455
 30
0.0
 10
215.437038
 20
1.117481
 30
0.0
  0
SPLINE
  5
117
100
AcDbEntity
  8
View
 62
7
100
AcDbSpline
 70
8
 71
3
 72
8
 73
4
 74
0
 40
0
 40
0
 40
0
 40
0
 40
1
 40
1
 40
1
 40
1
 10
215.437038
 20
1.117481
 30
0.0
 10
214.728090
 20
2.345416
 30
0.0
 10
213.417898
 20
3.101856
 30
0.0
 10
212.000000
 20
3.101856
 30
0.0
  0
LWPOLYLINE
  5
118
100
AcDbEntity
  8
View
 62
7
100
AcDbPolyline
 90
2
 70
0
 10
135.800000
 20
-4.835640
 30
0.0
 10
85.000000
 20
-4.835640
 30
0.0
  0
SPLINE
  5
119
100
AcDbEntity
  8
View
 62
7
100
AcDbSpline
 70
8
 71
3
 72
8
 73
4
 74
0
 40
0
 40
0
 40
0
 40
0
 40
1
 40
1
 40
1
 40
1
 10
161.200000
 20
3.101856
 30
0.0
 10
159.782102
 20
3.101856
 30
0.0
 10
158.471911
 20
2.345416
 30
0.0
 10
157.762962
 20
1.117481
 30
0.0
  0
SPLINE
  5
11a
100
AcDbEntity
  8
View
 62
7
100
AcDbSpline
 70
8
 71
3
 72
8
 73
4
 74
0
 40
0
 40
0
 40
0
 40
0
 40
1
 40
1
 40
1
 40
1
 10
157.762962
 20
1.117481
 30
0.0
 10
157.054013
 20
-0.110455
 30
0.0
 10
157.054013
 20
-1.623334
 30
0.0
 10
157.762962
 20
-2.851269
 30
0.0
  0
SPLINE
  5
11b
100
AcDbEntity
  8
View
 62
7
100
AcDbSpline
 70
8
 71
3
 72
8
 73
4
 74
0
 40
0
 40
0
 40
0
 40
0
 40
1
 40
1
 40
1
 40
1
 10
157.762962
 20
-2.851269
 30
0.0
 10
158.471911
 20
-4.079205
 30
0.0
 10
159.782102
 20
-4.835644
 30
0.0
 10
161.200000
 20
-4.835644
 30
0.0
  0
LWPOLYLINE
  5
11c
100
AcDbEntity
  8
View
 62
7
100
AcDbPolyline
 90
2
 70
0
 10
212.000000
 20
3.101860
 30
0.0
 10
161.200000
 20
3.101860
 30
0.0
  0
SPLINE
  5
11d
100
AcDbEntity
  8
View
 62
7
100
AcDbSpline
 70
8
 71
3
 72
8
 73
4
 74
0
 40
0
 40
0
 40
0
 40
0
 40
1
 40
1
 40
1
 40
1
 10
93.731250
 20
170.386000
 30
0.0
 10
93.731250
 20
168.968102
 30
0.0
 10
94.487690
 20
167.657911
 30
0.0
 10
95.715625
 20
166.948962
 30
0.0
  0
SPLINE
  5
11e
100
AcDbEntity
  8
View
 62
7
100
AcDbSpline
 70
8
 71
3
 72
8
 73
4
 74
0
 40
0
 40
0
 40
0
 40
0
 40
1
 40
1
 40
1
 40
1
 10
95.715625
 20
166.948962
 30
0.0
 10
96.943561
 20
166.240013
 30
0.0
 10
98.456440
 20
166.240013
 30
0.0
 10
99.684375
 20
166.948962
 30
0.0
  0
SPLINE
  5
11f
100
AcDbEntity
  8
View
 62
7
100
AcDbSpline
 70
8
 71
3
 72
8
 73
4
 74
0
 40
0
 40
0
 40
0
 40
0
 40
1
 40
1
 40
1
 40
1
 10
99.684375
 20
166.948962
 30
0.0
 10
100.912311
 20
167.657911
 30
0.0
 10
101.668750
 20
168.968102
 30
0.0
 10
101.668750
 20
170.386000
 30
0.0
  0
LWPOLYLINE
  5
120
100
AcDbEntity
  8
View
 62
7
100
AcDbPolyline
 90
2
 70
0
 10
212.000000
 20
-4.835640
 30
0.0
 10
161.200000
 20
-4.835640
 30
0.0
  0
SPLINE
  5
121
100
AcDbEntity
  8
View
 62
7
100
AcDbSpline
 70
8
 71
3
 72
8
 73
4
 74
0
 40
0
 40
0
 40
0
 40
0
 40
1
 40
1
 40
1
 40
1
 10
101.668750
 20
213.248000
 30
0.0
 10
101.668750
 20
214.665898
 30
0.0
 10
100.912311
 20
215.976089
 30
0.0
 10
99.684375
 20
216.685038
 30
0.0
  0
SPLINE
  5
122
100
AcDbEntity
  8
View
 62
7
100
AcDbSpline
 70
8
 71
3
 72
8
 73
4
 74
0
 40
0
 40
0
 40
0
 40
0
 40
1
 40
1
 40
1
 40
1
 10
99.684375
 20
216.685038
 30
0.0
 10
98.456440
 20
217.393987
 30
0.0
 10
96.943561
 20
217.393987
 30
0.0
 10
95.715625
 20
216.685038
 30
0.0
  0
SPLINE
  5
123
100
AcDbEntity
  8
View
 62
7
100
AcDbSpline
 70
8
 71
3
 72
8
 73
4
 74
0
 40
0
 40
0
 40
0
 40
0
 40
1
 40
1
 40
1
 40
1
 10
95.715625
 20
216.685038
 30
0.0
 10
94.487690
 20
215.976089
 30
0.0
 10
93.731250
 20
214.665898
 30
0.0
 10
93.731250
 20
213.248000
 30
0.0
  0
LWPOLYLINE
  5
124
100
AcDbEntity
  8
View
 62
7
100
AcDbPolyline
 90
2
 70
0
 10
101.669000
 20
170.386000
 30
0.0
 10
101.669000
 20
213.248000
 30
0.0
  0
SPLINE
  5
125
100
AcDbEntity
  8
View
 62
7
100
AcDbSpline
 70
8
 71
3
 72
8
 73
4
 74
0
 40
0
 40
0
 40
0
 40
0
 40
1
 40
1
 40
1
 40
1
 10
119.131250
 20
170.386000
 30
0.0
 10
119.131250
 20
168.968102
 30
0.0
 10
119.887690
 20
167.657911
 30
0.0
 10
121.115625
 20
166.948962
 30
0.0
  0
SPLINE
  5
126
100
AcDbEntity
  8
View
 62
7
100
AcDbSpline
 70
8
 71
3
 72
8
 73
4
 74
0
 40
0
 40
0
 40
0
 40
0
 40
1
 40
1
 40
1
 40
1
 10
121.115625
 20
166.948962
 30
0.0
 10
122.343561
 20
166.240013
 30
0.0
 10
123.856440
 20
166.240013
 30
0.0
 10
125.084375
 20
166.948962
 30
0.0
  0
SPLINE
  5
127
100
AcDbEntity
  8
View
 62
7
100
AcDbSpline
 70
8
 71
3
 72
8
 73
4
 74
0
 40
0
 40
0
 40
0
 40
0
 40
1
 40
1
 40
1
 40
1
 10
125.084375
 20
166.948962
 30
0.0
 10
126.312311
 20
167.657911
 30
0.0
 10
127.068750
 20
168.968102
 30
0.0
 10
127.068750
 20
170.386000
 30
0.0
  0
LWPOLYLINE
  5
128
100
AcDbEntity
  8
View
 62
7
100
AcDbPolyline
 90
2
 70
0
 10
93.731300
 20
170.386000
 30
0.0
 10
93.731300
 20
213.248000
 30
0.0
  0
SPLINE
  5
129
100
AcDbEntity
  8
View
 62
7
100
AcDbSpline
 70
8
 71
3
 72
8
 73
4
 74
0
 40
0
 40
0
 40
0
 40
0
 40
1
 40
1
 40
1
 40
1
 10
127.068750
 20
213.248000
 30
0.0
 10
127.068750
 20
214.665898
 30
0.0
 10
126.312311
 20
215.976089
 30
0.0
 10
125.084375
 20
216.685038
 30
0.0
  0
SPLINE
  5
12a
100
AcDbEntity
  8
View
 62
7
100
AcDbSpline
 70
8
 71
3
 72
8
 73
4
 74
0
 40
0
 40
0
 40
0
 40
0
 40
1
 40
1
 40
1
 40
1
 10
125.084375
 20
216.685038
 30
0.0
 10
123.856440
 20
217.393987
 30
0.0
 10
122.343561
 20
217.393987
 30
0.0
 10
121.115625
 20
216.685038
 30
0.0
  0
SPLINE
  5
12b
100
AcDbEntity
  8
View
 62
7
100
AcDbSpline
 70
8
 71
3
 72
8
 73
4
 74
0
 40
0
 40
0
 40
0
 40
0
 40
1
 40
1
 40
1
 40
1
 10
121.115625
 20
216.685038
 30
0.0
 10
119.887690
 20
215.976089
 30
0.0
 10
119.131250
 20
214.665898
 30
0.0
 10
119.131250
 20
213.248000
 30
0.0
  0
LWPOLYLINE
  5
12c
100
AcDbEntity
  8
View
 62
7
100
AcDbPolyline
 90
2
 70
0
 10
127.069000
 20
170.386000
 30
0.0
 10
127.069000
 20
213.248000
 30
0.0
  0
SPLINE
  5
12d
100
AcDbEntity
  8
View
 62
7
100
AcDbSpline
 70
8
 71
3
 72
8
 73
4
 74
0
 40
0
 40
0
 40
0
 40
0
 40
1
 40
1
 40
1
 40
1
 10
144.531250
 20
170.386000
 30
0.0
 10
144.531250
 20
168.968102
 30
0.0
 10
145.287690
 20
167.657911
 30
0.0
 10
146.515625
 20
166.948962
 30
0.0
  0
SPLINE
  5
12e
100
AcDbEntity
  8
View
 62
7
100
AcDbSpline
 70
8
 71
3
 72
8
 73
4
 74
0
 40
0
 40
0
 40
0
 40
0
 40
1
 40
1
 40
1
 40
1
 10
146.515625
 20
166.948962
 30
0.0
 10
147.743561
 20
166.240013
 30
0.0
 10
149.256440
 20
166.240013
 30
0.0
 10
150.484375
 20
166.948962
 30
0.0
  0
SPLINE
  5
12f
100
AcDbEntity
  8
View
 62
7
100
AcDbSpline
 70
8
 71
3
 72
8
 73
4
 74
0
 40
0
 40
0
 40
0
 40
0
 40
1
 40
1
 40
1
 40
1
 10
150.484375
 20
166.948962
 30
0.0
 10
151.712311
 20
167.657911
 30
0.0
 10
152.468750
 20
168.968102
 30
0.0
 10
152.468750
 20
170.386000
 30
0.0
  0
LWPOLYLINE
  5
130
100
AcDbEntity
  8
View
 62
7
100
AcDbPolyline
 90
2
 70
0
 10
119.131000
 20
170.386000
 30
0.0
 10
119.131000
 20
213.248000
 30
0.0
  0
SPLINE
  5
131
100
AcDbEntity
  8
View
 62
7
100
AcDbSpline
 70
8
 71
3
 72
8
 73
4
 74
0
 40
0
 40
0
 40
0
 40
0
 40
1
 40
1
 40
1
 40
1
 10
152.468750
 20
213.248000
 30
0.0
 10
152.468750
 20
214.665898
 30
0.0
 10
151.712311
 20
215.976089
 30
0.0
 10
150.484375
 20
216.685038
 30
0.0
  0
SPLINE
  5
132
100
AcDbEntity
  8
View
 62
7
100
AcDbSpline
 70
8
 71
3
 72
8
 73
4
 74
0
 40
0
 40
0
 40
0
 40
0
 40
1
 40
1
 40
1
 40
1
 10
150.484375
 20
216.685038
 30
0.0
 10
149.256440
 20
217.393987
 30
0.0
 10
147.743561
 20
217.393987
 30
0.0
 10
146.515625
 20
216.685038
 30
0.0
  0
SPLINE
  5
133
100
AcDbEntity
  8
View
 62
7
100
AcDbSpline
 70
8
 71
3
 72
8
 73
4
 74
0
 40
0
 40
0
 40
0
 40
0
 40
1
 40
1
 40
1
 40
1
 10
146.515625
 20
216.685038
 30
0.0
 10
145.287690
 20
215.976089
 30
0.0
 10
144.531250
 20
214.665898
 30
0.0
 10
144.531250
 20
213.248000
 30
0.0
  0
LWPOLYLINE
  5
134
100
AcDbEntity
  8
View
 62
7
100
AcDbPolyline
 90
2
 70
0
 10
152.469000
 20
170.386000
 30
0.0
 10
152.469000
 20
213.248000
 30
0.0
  0
SPLINE
  5
135
100
AcDbEntity
  8
View
 62
7
100
AcDbSpline
 70
8
 71
3
 72
8
 73
4
 74
0
 40
0
 40
0
 40
0
 40
0
 40
1
 40
1
 40
1
 40
1
 10
169.931250
 20
170.386000
 30
0.0
 10
169.931250
 20
168.968102
 30
0.0
 10
170.687690
 20
167.657911
 30
0.0
 10
171.915625
 20
166.948962
 30
0.0
  0
SPLINE
  5
136
100
AcDbEntity
  8
View
 62
7
100
AcDbSpline
 70
8
 71
3
 72
8
 73
4
 74
0
 40
0
 40
0
 40
0
 40
0
 40
1
 40
1
 40
1
 40
1
 10
171.915625
 20
166.948962
 30
0.0
 10
173.143561
 20
166.240013
 30
0.0
 10
174.656440
 20
166.240013
 30
0.0
 10
175.884375
 20
166.948962
 30
0.0
  0
SPLINE
  5
137
100
AcDbEntity
  8
View
 62
7
100
AcDbSpline
 70
8
 71
3
 72
8
 73
4
 74
0
 40
0
 40
0
 40
0
 40
0
 40
1
 40
1
 40
1
 40
1
 10
175.884375
 20
166.948962
 30
0.0
 10
177.112311
 20
167.657911
 30
0.0
 10
177.868750
 20
168.968102
 30
0.0
 10
177.868750
 20
170.386000
 30
0.0
  0
LWPOLYLINE
  5
138
100
AcDbEntity
  8
View
 62
7
100
AcDbPolyline
 90
2
 70
0
 10
144.531000
 20
170.386000
 30
0.0
 10
144.531000
 20
213.248000
 30
0.0
  0
SPLINE
  5
139
100
AcDbEntity
  8
View
 62
7
100
AcDbSpline
 70
8
 71
3
 72
8
 73
4
 74
0
 40
0
 40
0
 40
0
 40
0
 40
1
 40
1
 40
1
 40
1
 10
177.868750
 20
213.248000
 30
0.0
 10
177.868750
 20
214.665898
 30
0.0
 10
177.112311
 20
215.976089
 30
0.0
 10
175.884375
 20
216.685038
 30
0.0
  0
SPLINE
  5
13a
100
AcDbEntity
  8
View
 62
7
100
AcDbSpline
 70
8
 71
3
 72
8
 73
4
 74
0
 40
0
 40
0
 40
0
 40
0
 40
1
 40
1
 40
1
 40
1
 10
175.884375
 20
216.685038
 30
0.0
 10
174.656440
 20
217.393987
 30
0.0
 10
173.143561
 20
217.393987
 30
0.0
 10
171.915625
 20
216.685038
 30
0.0
  0
SPLINE
  5
13b
100
AcDbEntity
  8
View
 62
7
100
AcDbSpline
 70
8
 71
3
 72
8
 73
4
 74
0
 40
0
 40
0
 40
0
 40
0
 40
1
 40
1
 40
1
 40
1
 10
171.915625
 20
216.685038
 30
0.0
 10
170.687690
 20
215.976089
 30
0.0
 10
169.931250
 20
214.665898
 30
0.0
 10
169.931250
 20
213.248000
 30
0.0
  0
LWPOLYLINE
  5
13c
100
AcDbEntity
  8
View
 62
7
100
AcDbPolyline
 90
2
 70
0
 10
177.869000
 20
170.386000
 30
0.0
 10
177.869000
 20
213.248000
 30
0.0
  0
SPLINE
  5
13d
100
AcDbEntity
  8
View
 62
7
100
AcDbSpline
 70
8
 71
3
 72
8
 73
4
 74
0
 40
0
 40
0
 40
0
 40
0
 40
1
 40
1
 40
1
 40
1
 10
195.331250
 20
170.386000
 30
0.0
 10
195.331250
 20
168.968102
 30
0.0
 10
196.087690
 20
167.657911
 30
0.0
 10
197.315625
 20
166.948962
 30
0.0
  0
SPLINE
  5
13e
100
AcDbEntity
  8
View
 62
7
100
AcDbSpline
 70
8
 71
3
 72
8
 73
4
 74
0
 40
0
 40
0
 40
0
 40
0
 40
1
 40
1
 40
1
 40
1
 10
197.315625
 20
166.948962
 30
0.0
 10
198.543561
 20
166.240013
 30
0.0
 10
200.056440
 20
166.240013
 30
0.0
 10
201.284375
 20
166.948962
 30
0.0
  0
SPLINE
  5
13f
100
AcDbEntity
  8
View
 62
7
100
AcDbSpline
 70
8
 71
3
 72
8
 73
4
 74
0
 40
0
 40
0
 40
0
 40
0
 40
1
 40
1
 40
1
 40
1
 10
201.284375
 20
166.948962
 30
0.0
 10
202.512311
 20
167.657911
 30
0.0
 10
203.268750
 20
168.968102
 30
0.0
 10
203.268750
 20
170.386000
 30
0.0
  0
LWPOLYLINE
  5
140
100
AcDbEntity
  8
View
 62
7
100
AcDbPolyline
 90
2
 70
0
 10
169.931000
 20
170.386000
 30
0.0
 10
169.931000
 20
213.248000
 30
0.0
  0
SPLINE
  5
141
100
AcDbEntity
  8
View
 62
7
100
AcDbSpline
 70
8
 71
3
 72
8
 73
4
 74
0
 40
0
 40
0
 40
0
 40
0
 40
1
 40
1
 40
1
 40
1
 10
203.268750
 20
213.248000
 30
0.0
 10
203.268750
 20
214.665898
 30
0.0
 10
202.512311
 20
215.976089
 30
0.0
 10
201.284375
 20
216.685038
 30
0.0
  0
SPLINE
  5
142
100
AcDbEntity
  8
View
 62
7
100
AcDbSpline
 70
8
 71
3
 72
8
 73
4
 74
0
 40
0
 40
0
 40
0
 40
0
 40
1
 40
1
 40
1
 40
1
 10
201.284375
 20
216.685038
 30
0.0
 10
200.056440
 20
217.393987
 30
0.0
 10
198.543561
 20
217.393987
 30
0.0
 10
197.315625
 20
216.685038
 30
0.0
  0
SPLINE
  5
143
100
AcDbEntity
  8
View
 62
7
100
AcDbSpline
 70
8
 71
3
 72
8
 73
4
 74
0
 40
0
 40
0
 40
0
 40
0
 40
1
 40
1
 40
1
 40
1
 10
197.315625
 20
216.685038
 30
0.0
 10
196.087690
 20
215.976089
 30
0.0
 10
195.331250
 20
214.665898
 30
0.0
 10
195.331250
 20
213.248000
 30
0.0
  0
LWPOLYLINE
  5
144
100
AcDbEntity
  8
View
 62
7
100
AcDbPolyline
 90
2
 70
0
 10
203.269000
 20
170.386000
 30
0.0
 10
203.269000
 20
213.248000
 30
0.0
  0
SPLINE
  5
145
100
AcDbEntity
  8
View
 62
7
100
AcDbSpline
 70
8
 71
3
 72
8
 73
4
 74
0
 40
0
 40
0
 40
0
 40
0
 40
1
 40
1
 40
1
 40
1
 10
169.931250
 20
106.886000
 30
0.0
 10
169.931250
 20
105.468102
 30
0.0
 10
170.687690
 20
104.157911
 30
0.0
 10
171.915625
 20
103.448962
 30
0.0
  0
SPLINE
  5
146
100
AcDbEntity
  8
View
 62
7
100
AcDbSpline
 70
8
 71
3
 72
8
 73
4
 74
0
 40
0
 40
0
 40
0
 40
0
 40
1
 40
1
 40
1
 40
1
 10
171.915625
 20
103.448962
 30
0.0
 10
173.143561
 20
102.740013
 30
0.0
 10
174.656440
 20
102.740013
 30
0.0
 10
175.884375
 20
103.448962
 30
0.0
  0
SPLINE
  5
147
100
AcDbEntity
  8
View
 62
7
100
AcDbSpline
 70
8
 71
3
 72
8
 73
4
 74
0
 40
0
 40
0
 40
0
 40
0
 40
1
 40
1
 40
1
 40
1
 10
175.884375
 20
103.448962
 30
0.0
 10
177.112311
 20
104.157911
 30
0.0
 10
177.868750
 20
105.468102
 30
0.0
 10
177.868750
 20
106.886000
 30
0.0
  0
LWPOLYLINE
  5
148
100
AcDbEntity
  8
View
 62
7
100
AcDbPolyline
 90
2
 70
0
 10
195.331000
 20
170.386000
 30
0.0
 10
195.331000
 20
213.248000
 30
0.0
  0
SPLINE
  5
149
100
AcDbEntity
  8
View
 62
7
100
AcDbSpline
 70
8
 71
3
 72
8
 73
4
 74
0
 40
0
 40
0
 40
0
 40
0
 40
1
 40
1
 40
1
 40
1
 10
177.868750
 20
149.748000
 30
0.0
 10
177.868750
 20
151.165898
 30
0.0
 10
177.112311
 20
152.476089
 30
0.0
 10
175.884375
 20
153.185038
 30
0.0
  0
SPLINE
  5
14a
100
AcDbEntity
  8
View
 62
7
100
AcDbSpline
 70
8
 71
3
 72
8
 73
4
 74
0
 40
0
 40
0
 40
0
 40
0
 40
1
 40
1
 40
1
 40
1
 10
175.884375
 20
153.185038
 30
0.0
 10
174.656440
 20
153.893987
 30
0.0
 10
173.143561
 20
153.893987
 30
0.0
 10
171.915625
 20
153.185038
 30
0.0
  0
SPLINE
  5
14b
100
AcDbEntity
  8
View
 62
7
100
AcDbSpline
 70
8
 71
3
 72
8
 73
4
 74
0
 40
0
 40
0
 40
0
 40
0
 40
1
 40
1
 40
1
 40
1
 10
171.915625
 20
153.185038
 30
0.0
 10
170.687690
 20
152.476089
 30
0.0
 10
169.931250
 20
151.165898
 30
0.0
 10
169.931250
 20
149.748000
 30
0.0
  0
LWPOLYLINE
  5
14c
100
AcDbEntity
  8
View
 62
7
100
AcDbPolyline
 90
2
 70
0
 10
177.869000
 20
106.886000
 30
0.0
 10
177.869000
 20
149.748000
 30
0.0
  0
SPLINE
  5
14d
100
AcDbEntity
  8
View
 62
7
100
AcDbSpline
 70
8
 71
3
 72
8
 73
4
 74
0
 40
0
 40
0
 40
0
 40
0
 40
1
 40
1
 40
1
 40
1
 10
119.131250
 20
43.385600
 30
0.0
 10
119.131250
 20
41.967702
 30
0.0
 10
119.887690
 20
40.657511
 30
0.0
 10
121.115625
 20
39.948562
 30
0.0
  0
SPLINE
  5
14e
100
AcDbEntity
  8
View
 62
7
100
AcDbSpline
 70
8
 71
3
 72
8
 73
4
 74
0
 40
0
 40
0
 40
0
 40
0
 40
1
 40
1
 40
1
 40
1
 10
121.115625
 20
39.948562
 30
0.0
 10
122.343561
 20
39.239613
 30
0.0
 10
123.856440
 20
39.239613
 30
0.0
 10
125.084375
 20
39.948562
 30
0.0
  0
SPLINE
  5
14f
100
AcDbEntity
  8
View
 62
7
100
AcDbSpline
 70
8
 71
3
 72
8
 73
4
 74
0
 40
0
 40
0
 40
0
 40
0
 40
1
 40
1
 40
1
 40
1
 10
125.084375
 20
39.948562
 30
0.0
 10
126.312311
 20
40.657511
 30
0.0
 10
127.068750
 20
41.967702
 30
0.0
 10
127.068750
 20
43.385600
 30
0.0
  0
LWPOLYLINE
  5
150
100
AcDbEntity
  8
View
 62
7
100
AcDbPolyline
 90
2
 70
0
 10
169.931000
 20
106.886000
 30
0.0
 10
169.931000
 20
149.748000
 30
0.0
  0
SPLINE
  5
151
100
AcDbEntity
  8
View
 62
7
100
AcDbSpline
 70
8
 71
3
 72
8
 73
4
 74
0
 40
0
 40
0
 40
0
 40
0
 40
1
 40
1
 40
1
 40
1
 10
127.068750
 20
86.248100
 30
0.0
 10
127.068750
 20
87.665998
 30
0.0
 10
126.312311
 20
88.976189
 30
0.0
 10
125.084375
 20
89.685138
 30
0.0
  0
SPLINE
  5
152
100
AcDbEntity
  8
View
 62
7
100
AcDbSpline
 70
8
 71
3
 72
8
 73
4
 74
0
 40
0
 40
0
 40
0
 40
0
 40
1
 40
1
 40
1
 40
1
 10
125.084375
 20
89.685138
 30
0.0
 10
123.856440
 20
90.394087
 30
0.0
 10
122.343561
 20
90.394087
 30
0.0
 10
121.115625
 20
89.685138
 30
0.0
  0
SPLINE
  5
153
100
AcDbEntity
  8
View
 62
7
100
AcDbSpline
 70
8
 71
3
 72
8
 73
4
 74
0
 40
0
 40
0
 40
0
 40
0
 40
1
 40
1
 40
1
 40
1
 10
121.115625
 20
89.685138
 30
0.0
 10
119.887690
 20
88.976189
 30
0.0
 10
119.131250
 20
87.665998
 30
0.0
 10
119.131250
 20
86.248100
 30
0.0
  0
LWPOLYLINE
  5
154
100
AcDbEntity
  8
View
 62
7
100
AcDbPolyline
 90
2
 70
0
 10
127.069000
 20
43.385600
 30
0.0
 10
127.069000
 20
86.248100
 30
0.0
  0
SPLINE
  5
155
100
AcDbEntity
  8
View
 62
7
100
AcDbSpline
 70
8
 71
3
 72
8
 73
4
 74
0
 40
0
 40
0
 40
0
 40
0
 40
1
 40
1
 40
1
 40
1
 10
93.731250
 20
43.385600
 30
0.0
 10
93.731250
 20
41.967702
 30
0.0
 10
94.487690
 20
40.657511
 30
0.0
 10
95.715625
 20
39.948562
 30
0.0
  0
SPLINE
  5
156
100
AcDbEntity
  8
View
 62
7
100
AcDbSpline
 70
8
 71
3
 72
8
 73
4
 74
0
 40
0
 40
0
 40
0
 40
0
 40
1
 40
1
 40
1
 40
1
 10
95.715625
 20
39.948562
 30
0.0
 10
96.943561
 20
39.239613
 30
0.0
 10
98.456440
 20
39.239613
 30
0.0
 10
99.684375
 20
39.948562
 30
0.0
  0
SPLINE
  5
157
100
AcDbEntity
  8
View
 62
7
100
AcDbSpline
 70
8
 71
3
 72
8
 73
4
 74
0
 40
0
 40
0
 40
0
 40
0
 40
1
 40
1
 40
1
 40
1
 10
99.684375
 20
39.948562
 30
0.0
 10
100.912311
 20
40.657511
 30
0.0
 10
101.668750
 20
41.967702
 30
0.0
 10
101.668750
 20
43.385600
 30
0.0
  0
LWPOLYLINE
  5
158
100
AcDbEntity
  8
View
 62
7
100
AcDbPolyline
 90
2
 70
0
 10
119.131000
 20
43.385600
 30
0.0
 10
119.131000
 20
86.248100
 30
0.0
  0
SPLINE
  5
159
100
AcDbEntity
  8
View
 62
7
100
AcDbSpline
 70
8
 71
3
 72
8
 73
4
 74
0
 40
0
 40
0
 40
0
 40
0
 40
1
 40
1
 40
1
 40
1
 10
101.668750
 20
86.248100
 30
0.0
 10
101.668750
 20
87.665998
 30
0.0
 10
100.912311
 20
88.976189
 30
0.0
 10
99.684375
 20
89.685138
 30
0.0
  0
SPLINE
  5
15a
100
AcDbEntity
  8
View
 62
7
100
AcDbSpline
 70
8
 71
3
 72
8
 73
4
 74
0
 40
0
 40
0
 40
0
 40
0
 40
1
 40
1
 40
1
 40
1
 10
99.684375
 20
89.685138
 30
0.0
 10
98.456440
 20
90.394087
 30
0.0
 10
96.943561
 20
90.394087
 30
0.0
 10
95.715625
 20
89.685138
 30
0.0
  0
SPLINE
  5
15b
100
AcDbEntity
  8
View
 62
7
100
AcDbSpline
 70
8
 71
3
 72
8
 73
4
 74
0
 40
0
 40
0
 40
0
 40
0
 40
1
 40
1
 40
1
 40
1
 10
95.715625
 20
89.685138
 30
0.0
 10
94.487690
 20
88.976189
 30
0.0
 10
93.731250
 20
87.665998
 30
0.0
 10
93.731250
 20
86.248100
 30
0.0
  0
LWPOLYLINE
  5
15c
100
AcDbEntity
  8
View
 62
7
100
AcDbPolyline
 90
2
 70
0
 10
101.669000
 20
43.385600
 30
0.0
 10
101.669000
 20
86.248100
 30
0.0
  0
SPLINE
  5
15d
100
AcDbEntity
  8
View
 62
7
100
AcDbSpline
 70
8
 71
3
 72
8
 73
4
 74
0
 40
0
 40
0
 40
0
 40
0
 40
1
 40
1
 40
1
 40
1
 10
144.531250
 20
106.886000
 30
0.0
 10
144.531250
 20
105.468102
 30
0.0
 10
145.287690
 20
104.157911
 30
0.0
 10
146.515625
 20
103.448962
 30
0.0
  0
SPLINE
  5
15e
100
AcDbEntity
  8
View
 62
7
100
AcDbSpline
 70
8
 71
3
 72
8
 73
4
 74
0
 40
0
 40
0
 40
0
 40
0
 40
1
 40
1
 40
1
 40
1
 10
146.515625
 20
103.448962
 30
0.0
 10
147.743561
 20
102.740013
 30
0.0
 10
149.256440
 20
102.740013
 30
0.0
 10
150.484375
 20
103.448962
 30
0.0
  0
SPLINE
  5
15f
100
AcDbEntity
  8
View
 62
7
100
AcDbSpline
 70
8
 71
3
 72
8
 73
4
 74
0
 40
0
 40
0
 40
0
 40
0
 40
1
 40
1
 40
1
 40
1
 10
150.484375
 20
103.448962
 30
0.0
 10
151.712311
 20
104.157911
 30
0.0
 10
152.468750
 20
105.468102
 30
0.0
 10
152.468750
 20
106.886000
 30
0.0
  0
LWPOLYLINE
  5
160
100
AcDbEntity
  8
View
 62
7
100
AcDbPolyline
 90
2
 70
0
 10
93.731300
 20
43.385600
 30
0.0
 10
93.731300
 20
86.248100
 30
0.0
  0
SPLINE
  5
161
100
AcDbEntity
  8
View
 62
7
100
AcDbSpline
 70
8
 71
3
 72
8
 73
4
 74
0
 40
0
 40
0
 40
0
 40
0
 40
1
 40
1
 40
1
 40
1
 10
152.468750
 20
149.748000
 30
0.0
 10
152.468750
 20
151.165898
 30
0.0
 10
151.712311
 20
152.476089
 30
0.0
 10
150.484375
 20
153.185038
 30
0.0
  0
SPLINE
  5
162
100
AcDbEntity
  8
View
 62
7
100
AcDbSpline
 70
8
 71
3
 72
8
 73
4
 74
0
 40
0
 40
0
 40
0
 40
0
 40
1
 40
1
 40
1
 40
1
 10
150.484375
 20
153.185038
 30
0.0
 10
149.256440
 20
153.893987
 30
0.0
 10
147.743561
 20
153.893987
 30
0.0
 10
146.515625
 20
153.185038
 30
0.0
  0
SPLINE
  5
163
100
AcDbEntity
  8
View
 62
7
100
AcDbSpline
 70
8
 71
3
 72
8
 73
4
 74
0
 40
0
 40
0
 40
0
 40
0
 40
1
 40
1
 40
1
 40
1
 10
146.515625
 20
153.185038
 30
0.0
 10
145.287690
 20
152.476089
 30
0.0
 10
144.531250
 20
151.165898
 30
0.0
 10
144.531250
 20
149.748000
 30
0.0
  0
LWPOLYLINE
  5
164
100
AcDbEntity
  8
View
 62
7
100
AcDbPolyline
 90
2
 70
0
 10
152.469000
 20
106.886000
 30
0.0
 10
152.469000
 20
149.748000
 30
0.0
  0
SPLINE
  5
165
100
AcDbEntity
  8
View
 62
7
100
AcDbSpline
 70
8
 71
3
 72
8
 73
4
 74
0
 40
0
 40
0
 40
0
 40
0
 40
1
 40
1
 40
1
 40
1
 10
119.131250
 20
106.886000
 30
0.0
 10
119.131250
 20
105.468102
 30
0.0
 10
119.887690
 20
104.157911
 30
0.0
 10
121.115625
 20
103.448962
 30
0.0
  0
SPLINE
  5
166
100
AcDbEntity
  8
View
 62
7
100
AcDbSpline
 70
8
 71
3
 72
8
 73
4
 74
0
 40
0
 40
0
 40
0
 40
0
 40
1
 40
1
 40
1
 40
1
 10
121.115625
 20
103.448962
 30
0.0
 10
122.343561
 20
102.740013
 30
0.0
 10
123.856440
 20
102.740013
 30
0.0
 10
125.084375
 20
103.448962
 30
0.0
  0
SPLINE
  5
167
100
AcDbEntity
  8
View
 62
7
100
AcDbSpline
 70
8
 71
3
 72
8
 73
4
 74
0
 40
0
 40
0
 40
0
 40
0
 40
1
 40
1
 40
1
 40
1
 10
125.084375
 20
103.448962
 30
0.0
 10
126.312311
 20
104.157911
 30
0.0
 10
127.068750
 20
105.468102
 30
0.0
 10
127.068750
 20
106.886000
 30
0.0
  0
LWPOLYLINE
  5
168
100
AcDbEntity
  8
View
 62
7
100
AcDbPolyline
 90
2
 70
0
 10
144.531000
 20
106.886000
 30
0.0
 10
144.531000
 20
149.748000
 30
0.0
  0
SPLINE
  5
169
100
AcDbEntity
  8
View
 62
7
100
AcDbSpline
 70
8
 71
3
 72
8
 73
4
 74
0
 40
0
 40
0
 40
0
 40
0
 40
1
 40
1
 40
1
 40
1
 10
127.068750
 20
149.748000
 30
0.0
 10
127.068750
 20
151.165898
 30
0.0
 10
126.312311
 20
152.476089
 30
0.0
 10
125.084375
 20
153.185038
 30
0.0
  0
SPLINE
  5
16a
100
AcDbEntity
  8
View
 62
7
100
AcDbSpline
 70
8
 71
3
 72
8
 73
4
 74
0
 40
0
 40
0
 40
0
 40
0
 40
1
 40
1
 40
1
 40
1
 10
125.084375
 20
153.185038
 30
0.0
 10
123.856440
 20
153.893987
 30
0.0
 10
122.343561
 20
153.893987
 30
0.0
 10
121.115625
 20
153.185038
 30
0.0
  0
SPLINE
  5
16b
100
AcDbEntity
  8
View
 62
7
100
AcDbSpline
 70
8
 71
3
 72
8
 73
4
 74
0
 40
0
 40
0
 40
0
 40
0
 40
1
 40
1
 40
1
 40
1
 10
121.115625
 20
153.185038
 30
0.0
 10
119.887690
 20
152.476089
 30
0.0
 10
119.131250
 20
151.165898
 30
0.0
 10
119.131250
 20
149.748000
 30
0.0
  0
LWPOLYLINE
  5
16c
100
AcDbEntity
  8
View
 62
7
100
AcDbPolyline
 90
2
 70
0
 10
127.069000
 20
106.886000
 30
0.0
 10
127.069000
 20
149.748000
 30
0.0
  0
SPLINE
  5
16d
100
AcDbEntity
  8
View
 62
7
100
AcDbSpline
 70
8
 71
3
 72
8
 73
4
 74
0
 40
0
 40
0
 40
0
 40
0
 40
1
 40
1
 40
1
 40
1
 10
195.331250
 20
106.886000
 30
0.0
 10
195.331250
 20
105.468102
 30
0.0
 10
196.087690
 20
104.157911
 30
0.0
 10
197.315625
 20
103.448962
 30
0.0
  0
SPLINE
  5
16e
100
AcDbEntity
  8
View
 62
7
100
AcDbSpline
 70
8
 71
3
 72
8
 73
4
 74
0
 40
0
 40
0
 40
0
 40
0
 40
1
 40
1
 40
1
 40
1
 10
197.315625
 20
103.448962
 30
0.0
 10
198.543561
 20
102.740013
 30
0.0
 10
200.056440
 20
102.740013
 30
0.0
 10
201.284375
 20
103.448962
 30
0.0
  0
SPLINE
  5
16f
100
AcDbEntity
  8
View
 62
7
100
AcDbSpline
 70
8
 71
3
 72
8
 73
4
 74
0
 40
0
 40
0
 40
0
 40
0
 40
1
 40
1
 40
1
 40
1
 10
201.284375
 20
103.448962
 30
0.0
 10
202.512311
 20
104.157911
 30
0.0
 10
203.268750
 20
105.468102
 30
0.0
 10
203.268750
 20
106.886000
 30
0.0
  0
LWPOLYLINE
  5
170
100
AcDbEntity
  8
View
 62
7
100
AcDbPolyline
 90
2
 70
0
 10
119.131000
 20
106.886000
 30
0.0
 10
119.131000
 20
149.748000
 30
0.0
  0
SPLINE
  5
171
100
AcDbEntity
  8
View
 62
7
100
AcDbSpline
 70
8
 71
3
 72
8
 73
4
 74
0
 40
0
 40
0
 40
0
 40
0
 40
1
 40
1
 40
1
 40
1
 10
203.268750
 20
149.748000
 30
0.0
 10
203.268750
 20
151.165898
 30
0.0
 10
202.512311
 20
152.476089
 30
0.0
 10
201.284375
 20
153.185038
 30
0.0
  0
SPLINE
  5
172
100
AcDbEntity
  8
View
 62
7
100
AcDbSpline
 70
8
 71
3
 72
8
 73
4
 74
0
 40
0
 40
0
 40
0
 40
0
 40
1
 40
1
 40
1
 40
1
 10
201.284375
 20
153.185038
 30
0.0
 10
200.056440
 20
153.893987
 30
0.0
 10
198.543561
 20
153.893987
 30
0.0
 10
197.315625
 20
153.185038
 30
0.0
  0
SPLINE
  5
173
100
AcDbEntity
  8
View
 62
7
100
AcDbSpline
 70
8
 71
3
 72
8
 73
4
 74
0
 40
0
 40
0
 40
0
 40
0
 40
1
 40
1
 40
1
 40
1
 10
197.315625
 20
153.185038
 30
0.0
 10
196.087690
 20
152.476089
 30
0.0
 10
195.331250
 20
151.165898
 30
0.0
 10
195.331250
 20
149.748000
 30
0.0
  0
LWPOLYLINE
  5
174
100
AcDbEntity
  8
View
 62
7
100
AcDbPolyline
 90
2
 70
0
 10
203.269000
 20
106.886000
 30
0.0
 10
203.269000
 20
149.748000
 30
0.0
  0
SPLINE
  5
175
100
AcDbEntity
  8
View
 62
7
100
AcDbSpline
 70
8
 71
3
 72
8
 73
4
 74
0
 40
0
 40
0
 40
0
 40
0
 40
1
 40
1
 40
1
 40
1
 10
93.731250
 20
106.886000
 30
0.0
 10
93.731250
 20
105.468102
 30
0.0
 10
94.487690
 20
104.157911
 30
0.0
 10
95.715625
 20
103.448962
 30
0.0
  0
SPLINE
  5
176
100
AcDbEntity
  8
View
 62
7
100
AcDbSpline
 70
8
 71
3
 72
8
 73
4
 74
0
 40
0
 40
0
 40
0
 40
0
 40
1
 40
1
 40
1
 40
1
 10
95.715625
 20
103.448962
 30
0.0
 10
96.943561
 20
102.740013
 30
0.0
 10
98.456440
 20
102.740013
 30
0.0
 10
99.684375
 20
103.448962
 30
0.0
  0
SPLINE
  5
177
100
AcDbEntity
  8
View
 62
7
100
AcDbSpline
 70
8
 71
3
 72
8
 73
4
 74
0
 40
0
 40
0
 40
0
 40
0
 40
1
 40
1
 40
1
 40
1
 10
99.684375
 20
103.448962
 30
0.0
 10
100.912311
 20
104.157911
 30
0.0
 10
101.668750
 20
105.468102
 30
0.0
 10
101.668750
 20
106.886000
 30
0.0
  0
LWPOLYLINE
  5
178
100
AcDbEntity
  8
View
 62
7
100
AcDbPolyline
 90
2
 70
0
 10
195.331000
 20
106.886000
 30
0.0
 10
195.331000
 20
149.748000
 30
0.0
  0
SPLINE
  5
179
100
AcDbEntity
  8
View
 62
7
100
AcDbSpline
 70
8
 71
3
 72
8
 73
4
 74
0
 40
0
 40
0
 40
0
 40
0
 40
1
 40
1
 40
1
 40
1
 10
101.668750
 20
149.748000
 30
0.0
 10
101.668750
 20
151.165898
 30
0.0
 10
100.912311
 20
152.476089
 30
0.0
 10
99.684375
 20
153.185038
 30
0.0
  0
SPLINE
  5
17a
100
AcDbEntity
  8
View
 62
7
100
AcDbSpline
 70
8
 71
3
 72
8
 73
4
 74
0
 40
0
 40
0
 40
0
 40
0
 40
1
 40
1
 40
1
 40
1
 10
99.684375
 20
153.185038
 30
0.0
 10
98.456440
 20
153.893987
 30
0.0
 10
96.943561
 20
153.893987
 30
0.0
 10
95.715625
 20
153.185038
 30
0.0
  0
SPLINE
  5
17b
100
AcDbEntity
  8
View
 62
7
100
AcDbSpline
 70
8
 71
3
 72
8
 73
4
 74
0
 40
0
 40
0
 40
0
 40
0
 40
1
 40
1
 40
1
 40
1
 10
95.715625
 20
153.185038
 30
0.0
 10
94.487690
 20
152.476089
 30
0.0
 10
93.731250
 20
151.165898
 30
0.0
 10
93.731250
 20
149.748000
 30
0.0
  0
LWPOLYLINE
  5
17c
100
AcDbEntity
  8
View
 62
7
100
AcDbPolyline
 90
2
 70
0
 10
101.669000
 20
106.886000
 30
0.0
 10
101.669000
 20
149.748000
 30
0.0
  0
SPLINE
  5
17d
100
AcDbEntity
  8
View
 62
7
100
AcDbSpline
 70
8
 71
3
 72
8
 73
4
 74
0
 40
0
 40
0
 40
0
 40
0
 40
1
 40
1
 40
1
 40
1
 10
195.331250
 20
43.385600
 30
0.0
 10
195.331250
 20
41.967702
 30
0.0
 10
196.087690
 20
40.657511
 30
0.0
 10
197.315625
 20
39.948562
 30
0.0
  0
SPLINE
  5
17e
100
AcDbEntity
  8
View
 62
7
100
AcDbSpline
 70
8
 71
3
 72
8
 73
4
 74
0
 40
0
 40
0
 40
0
 40
0
 40
1
 40
1
 40
1
 40
1
 10
197.315625
 20
39.948562
 30
0.0
 10
198.543561
 20
39.239613
 30
0.0
 10
200.056440
 20
39.239613
 30
0.0
 10
201.284375
 20
39.948562
 30
0.0
  0
SPLINE
  5
17f
100
AcDbEntity
  8
View
 62
7
100
AcDbSpline
 70
8
 71
3
 72
8
 73
4
 74
0
 40
0
 40
0
 40
0
 40
0
 40
1
 40
1
 40
1
 40
1
 10
201.284375
 20
39.948562
 30
0.0
 10
202.512311
 20
40.657511
 30
0.0
 10
203.268750
 20
41.967702
 30
0.0
 10
203.268750
 20
43.385600
 30
0.0
  0
LWPOLYLINE
  5
180
100
AcDbEntity
  8
View
 62
7
100
AcDbPolyline
 90
2
 70
0
 10
93.731300
 20
106.886000
 30
0.0
 10
93.731300
 20
149.748000
 30
0.0
  0
SPLINE
  5
181
100
AcDbEntity
  8
View
 62
7
100
AcDbSpline
 70
8
 71
3
 72
8
 73
4
 74
0
 40
0
 40
0
 40
0
 40
0
 40
1
 40
1
 40
1
 40
1
 10
203.268750
 20
86.248100
 30
0.0
 10
203.268750
 20
87.665998
 30
0.0
 10
202.512311
 20
88.976189
 30
0.0
 10
201.284375
 20
89.685138
 30
0.0
  0
SPLINE
  5
182
100
AcDbEntity
  8
View
 62
7
100
AcDbSpline
 70
8
 71
3
 72
8
 73
4
 74
0
 40
0
 40
0
 40
0
 40
0
 40
1
 40
1
 40
1
 40
1
 10
201.284375
 20
89.685138
 30
0.0
 10
200.056440
 20
90.394087
 30
0.0
 10
198.543561
 20
90.394087
 30
0.0
 10
197.315625
 20
89.685138
 30
0.0
  0
SPLINE
  5
183
100
AcDbEntity
  8
View
 62
7
100
AcDbSpline
 70
8
 71
3
 72
8
 73
4
 74
0
 40
0
 40
0
 40
0
 40
0
 40
1
 40
1
 40
1
 40
1
 10
197.315625
 20
89.685138
 30
0.0
 10
196.087690
 20
88.976189
 30
0.0
 10
195.331250
 20
87.665998
 30
0.0
 10
195.331250
 20
86.248100
 30
0.0
  0
LWPOLYLINE
  5
184
100
AcDbEntity
  8
View
 62
7
100
AcDbPolyline
 90
2
 70
0
 10
203.269000
 20
43.385600
 30
0.0
 10
203.269000
 20
86.248100
 30
0.0
  0
SPLINE
  5
185
100
AcDbEntity
  8
View
 62
7
100
AcDbSpline
 70
8
 71
3
 72
8
 73
4
 74
0
 40
0
 40
0
 40
0
 40
0
 40
1
 40
1
 40
1
 40
1
 10
144.531250
 20
43.385600
 30
0.0
 10
144.531250
 20
41.967702
 30
0.0
 10
145.287690
 20
40.657511
 30
0.0
 10
146.515625
 20
39.948562
 30
0.0
  0
SPLINE
  5
186
100
AcDbEntity
  8
View
 62
7
100
AcDbSpline
 70
8
 71
3
 72
8
 73
4
 74
0
 40
0
 40
0
 40
0
 40
0
 40
1
 40
1
 40
1
 40
1
 10
146.515625
 20
39.948562
 30
0.0
 10
147.743561
 20
39.239613
 30
0.0
 10
149.256440
 20
39.239613
 30
0.0
 10
150.484375
 20
39.948562
 30
0.0
  0
SPLINE
  5
187
100
AcDbEntity
  8
View
 62
7
100
AcDbSpline
 70
8
 71
3
 72
8
 73
4
 74
0
 40
0
 40
0
 40
0
 40
0
 40
1
 40
1
 40
1
 40
1
 10
150.484375
 20
39.948562
 30
0.0
 10
151.712311
 20
40.657511
 30
0.0
 10
152.468750
 20
41.967702
 30
0.0
 10
152.468750
 20
43.385600
 30
0.0
  0
LWPOLYLINE
  5
188
100
AcDbEntity
  8
View
 62
7
100
AcDbPolyline
 90
2
 70
0
 10
195.331000
 20
43.385600
 30
0.0
 10
195.331000
 20
86.248100
 30
0.0
  0
SPLINE
  5
189
100
AcDbEntity
  8
View
 62
7
100
AcDbSpline
 70
8
 71
3
 72
8
 73
4
 74
0
 40
0
 40
0
 40
0
 40
0
 40
1
 40
1
 40
1
 40
1
 10
152.468750
 20
86.248100
 30
0.0
 10
152.468750
 20
87.665998
 30
0.0
 10
151.712311
 20
88.976189
 30
0.0
 10
150.484375
 20
89.685138
 30
0.0
  0
SPLINE
  5
18a
100
AcDbEntity
  8
View
 62
7
100
AcDbSpline
 70
8
 71
3
 72
8
 73
4
 74
0
 40
0
 40
0
 40
0
 40
0
 40
1
 40
1
 40
1
 40
1
 10
150.484375
 20
89.685138
 30
0.0
 10
149.256440
 20
90.394087
 30
0.0
 10
147.743561
 20
90.394087
 30
0.0
 10
146.515625
 20
89.685138
 30
0.0
  0
SPLINE
  5
18b
100
AcDbEntity
  8
View
 62
7
100
AcDbSpline
 70
8
 71
3
 72
8
 73
4
 74
0
 40
0
 40
0
 40
0
 40
0
 40
1
 40
1
 40
1
 40
1
 10
146.515625
 20
89.685138
 30
0.0
 10
145.287690
 20
88.976189
 30
0.0
 10
144.531250
 20
87.665998
 30
0.0
 10
144.531250
 20
86.248100
 30
0.0
  0
LWPOLYLINE
  5
18c
100
AcDbEntity
  8
View
 62
7
100
AcDbPolyline
 90
2
 70
0
 10
152.469000
 20
43.385600
 30
0.0
 10
152.469000
 20
86.248100
 30
0.0
  0
SPLINE
  5
18d
100
AcDbEntity
  8
View
 62
7
100
AcDbSpline
 70
8
 71
3
 72
8
 73
4
 74
0
 40
0
 40
0
 40
0
 40
0
 40
1
 40
1
 40
1
 40
1
 10
169.931250
 20
43.385600
 30
0.0
 10
169.931250
 20
41.967702
 30
0.0
 10
170.687690
 20
40.657511
 30
0.0
 10
171.915625
 20
39.948562
 30
0.0
  0
SPLINE
  5
18e
100
AcDbEntity
  8
View
 62
7
100
AcDbSpline
 70
8
 71
3
 72
8
 73
4
 74
0
 40
0
 40
0
 40
0
 40
0
 40
1
 40
1
 40
1
 40
1
 10
171.915625
 20
39.948562
 30
0.0
 10
173.143561
 20
39.239613
 30
0.0
 10
174.656440
 20
39.239613
 30
0.0
 10
175.884375
 20
39.948562
 30
0.0
  0
SPLINE
  5
18f
100
AcDbEntity
  8
View
 62
7
100
AcDbSpline
 70
8
 71
3
 72
8
 73
4
 74
0
 40
0
 40
0
 40
0
 40
0
 40
1
 40
1
 40
1
 40
1
 10
175.884375
 20
39.948562
 30
0.0
 10
177.112311
 20
40.657511
 30
0.0
 10
177.868750
 20
41.967702
 30
0.0
 10
177.868750
 20
43.385600
 30
0.0
  0
LWPOLYLINE
  5
190
100
AcDbEntity
  8
View
 62
7
100
AcDbPolyline
 90
2
 70
0
 10
144.531000
 20
43.385600
 30
0.0
 10
144.531000
 20
86.248100
 30
0.0
  0
SPLINE
  5
191
100
AcDbEntity
  8
View
 62
7
100
AcDbSpline
 70
8
 71
3
 72
8
 73
4
 74
0
 40
0
 40
0
 40
0
 40
0
 40
1
 40
1
 40
1
 40
1
 10
177.868750
 20
86.248100
 30
0.0
 10
177.868750
 20
87.665998
 30
0.0
 10
177.112311
 20
88.976189
 30
0.0
 10
175.884375
 20
89.685138
 30
0.0
  0
SPLINE
  5
192
100
AcDbEntity
  8
View
 62
7
100
AcDbSpline
 70
8
 71
3
 72
8
 73
4
 74
0
 40
0
 40
0
 40
0
 40
0
 40
1
 40
1
 40
1
 40
1
 10
175.884375
 20
89.685138
 30
0.0
 10
174.656440
 20
90.394087
 30
0.0
 10
173.143561
 20
90.394087
 30
0.0
 10
171.915625
 20
89.685138
 30
0.0
  0
SPLINE
  5
193
100
AcDbEntity
  8
View
 62
7
100
AcDbSpline
 70
8
 71
3
 72
8
 73
4
 74
0
 40
0
 40
0
 40
0
 40
0
 40
1
 40
1
 40
1
 40
1
 10
171.915625
 20
89.685138
 30
0.0
 10
170.687690
 20
88.976189
 30
0.0
 10
169.931250
 20
87.665998
 30
0.0
 10
169.931250
 20
86.248100
 30
0.0
  0
LWPOLYLINE
  5
194
100
AcDbEntity
  8
View
 62
7
100
AcDbPolyline
 90
2
 70
0
 10
177.869000
 20
43.385600
 30
0.0
 10
177.869000
 20
86.248100
 30
0.0
  0
LWPOLYLINE
  5
195
100
AcDbEntity
  8
View
 62
7
100
AcDbPolyline
 90
2
 70
0
 10
169.931000
 20
43.385600
 30
0.0
 10
169.931000
 20
86.248100
 30
0.0
  0
LWPOLYLINE
  5
196
100
AcDbEntity
  8
View
 62
1
100
AcDbPolyline
 90
2
 70
0
 10
228.191000
 20
229.917000
 30
0.0
 10
228.191000
 20
26.716900
 30
0.0
  0
LWPOLYLINE
  5
197
100
AcDbEntity
  8
View
 62
1
100
AcDbPolyline
 90
2
 70
0
 10
68.808900
 20
26.716900
 30
0.0
 10
68.808900
 20
229.917000
 30
0.0
  0
LWPOLYLINE
  5
198
100
AcDbEntity
  8
View
 62
1
100
AcDbPolyline
 90
2
 70
0
 10
224.700000
 20
22.450000
 30
0.0
 10
72.300000
 20
22.450000
 30
0.0
  0
ENDSEC
  0
SECTION
  2
OBJECTS
  0
DICTIONARY
  5
C
330
0
100
AcDbDictionary
  3
ACAD_GROUP
350
D
  3
ACAD_MLINESTYLE
350
17
  0
DICTIONARY
  5
D
330
C
100
AcDbDictionary
  0
DICTIONARY
  5
1A
330
C
100
AcDbDictionary
  0
DICTIONARY
  5
17
330
C
100
AcDbDictionary
  3
STANDARD
350
18
  0
DICTIONARY
  5
19
330
C
100
AcDbDictionary
  0
ENDSEC
  0
EOF
