  0
SECTION
  2
HEADER
  9
$ACADVER
  1
AC1014
  9
$HANDSEED
  5
FFFF
  9
$MEASUREMENT
 70
     1
  0
ENDSEC
  0
SECTION
  2
TABLES
  0
TABLE
  2
VPORT
  5
8
330
0
100
AcDbSymbolTable
 70
     4
  0
VPORT
  5
2E
330
8
100
AcDbSymbolTableRecord
100
AcDbViewportTableRecord
  2
*ACTIVE
 70
     0
 10
0.0
 20
0.0
 11
1.0
 21
1.0
 12
210.0
 22
148.5
 13
0.0
 23
0.0
 14
10.0
 24
10.0
 15
10.0
 25
10.0
 16
0.0
 26
0.0
 36
1.0
 17
0.0
 27
0.0
 37
0.0
 40
341.0
 41
1.24
 42
50.0
 43
0.0
 44
0.0
 50
0.0
 51
0.0
 71
     0
 72
   100
 73
     1
 74
     3
 75
     0
 76
     0
 77
     0
 78
     0
  0
ENDTAB
  0
TABLE
  2
LTYPE
  5
5
330
0
100
AcDbSymbolTable
 70
     1
  0
LTYPE
  5
14
330
5
100
AcDbSymbolTableRecord
100
AcDbLinetypeTableRecord
  2
BYBLOCK
 70
     0
  3

 72
    65
 73
     0
 40
0.0
  0
LTYPE
  5
15
330
5
100
AcDbSymbolTableRecord
100
AcDbLinetypeTableRecord
  2
BYLAYER
 70
     0
  3

 72
    65
 73
     0
 40
0.0
  0
LTYPE
  5
16
330
5
100
AcDbSymbolTableRecord
100
AcDbLinetypeTableRecord
  2
CONTINUOUS
 70
     0
  3
Solid line
 72
    65
 73
     0
 40
0.0
  0
ENDTAB
  0
TABLE
  2
LAYER
  5
2
100
AcDbSymbolTable
 70
2
  0
LAYER
  5
50
100
AcDbSymbolTableRecord
100
AcDbLayerTableRecord
  2
0
 70
0
  6
CONTINUOUS
  0
LAYER
  5
51
100
AcDbSymbolTableRecord
100
AcDbLayerTableRecord
  2
View001
 70
0
  6
CONTINUOUS
  0
ENDTAB
  0
TABLE
  2
STYLE
  5
3
330
0
100
AcDbSymbolTable
 70
     1
  0
STYLE
  5
11
330
3
100
AcDbSymbolTableRecord
100
AcDbTextStyleTableRecord
  2
STANDARD
 70
     0
 40
0.0
 41
1.0
 50
0.0
 71
     0
 42
2.5
  3
txt
  4

  0
ENDTAB
  0
TABLE
  2
VIEW
  5
6
330
0
100
AcDbSymbolTable
 70
     0
  0
ENDTAB
  0
TABLE
  2
UCS
  5
7
330
0
100
AcDbSymbolTable
 70
     0
  0
ENDTAB
  0
TABLE
  2
APPID
  5
9
330
0
100
AcDbSymbolTable
 70
     2
  0
APPID
  5
12
330
9
100
AcDbSymbolTableRecord
100
AcDbRegAppTableRecord
  2
ACAD
 70
     0
  0
ENDTAB
  0
TABLE
  2
DIMSTYLE
  5
A
330
0
100
AcDbSymbolTable
 70
     1
  0
DIMSTYLE
105
27
330
A
100
AcDbSymbolTableRecord
100
AcDbDimStyleTableRecord
  2
ISO-25
 70
     0
  3

  4

  5

  6

  7

 40
1.0
 41
2.5
 42
0.625
 43
3.75
 44
1.25
 45
0.0
 46
0.0
 47
0.0
 48
0.0
140
2.5
141
2.5
142
0.0
143
0.03937007874016
144
1.0
145
0.0
146
1.0
147
0.625
 71
     0
 72
     0
 73
     0
 74
     0
 75
     0
 76
     0
 77
     1
 78
     8
170
     0
171
     3
172
     1
173
     0
174
     0
175
     0
176
     0
177
     0
178
     0
270
     2
271
     2
272
     2
273
     2
274
     3
340
11
275
     0
280
     0
281
     0
282
     0
283
     0
284
     8
285
     0
286
     0
287
     3
288
     0
  0
ENDTAB
  0
TABLE
  2
BLOCK_RECORD
  5
1
330
0
100
AcDbSymbolTable
 70
     1
  0
BLOCK_RECORD
  5
1F
330
1
100
AcDbSymbolTableRecord
100
AcDbBlockTableRecord
  2
*MODEL_SPACE
  0
BLOCK_RECORD
  5
1B
330
1
100
AcDbSymbolTableRecord
100
AcDbBlockTableRecord
  2
*PAPER_SPACE
  0
ENDTAB
  0
ENDSEC
  0
SECTION
  2
BLOCKS
  0
BLOCK
  5
20
330
1F
100
AcDbEntity
  8
0
100
AcDbBlockBegin
  2
*MODEL_SPACE
 70
     0
 10
0.0
 20
0.0
 30
0.0
  3
*MODEL_SPACE
  1

  0
ENDBLK
  5
21
330
1F
100
AcDbEntity
  8
0
100
AcDbBlockEnd
  0
BLOCK
  5
1C
330
1B
100
AcDbEntity
 67
     1
  8
0
100
AcDbBlockBegin
  2
*PAPER_SPACE
  1

  0
ENDBLK
  5
1D
330
1B
100
AcDbEntity
 67
     1
  8
0
100
AcDbBlockEnd
  0
ENDSEC
  0
SECTION
  2
ENTITIES
  0
LWPOLYLINE
  5
100
100
AcDbEntity
  8
View001
 62
7
100
AcDbPolyline
 90
2
 70
0
 10
69.125000
 20
-19.916900
 30
0.0
 10
69.125000
 20
18.183100
 30
0.0
  0
LWPOLYLINE
  5
101
100
AcDbEntity
  8
View001
 62
7
100
AcDbPolyline
 90
2
 70
0
 10
72.300000
 20
18.183100
 30
0.0
 10
69.125000
 20
18.183100
 30
0.0
  0
SPLINE
  5
102
100
AcDbEntity
  8
View001
 62
7
100
AcDbSpline
 70
8
 71
3
 72
8
 73
4
 74
0
 40
0
 40
0
 40
0
 40
0
 40
1
 40
1
 40
1
 40
1
 10
73.887500
 20
26.716900
 30
0.0
 10
73.888200
 20
26.545100
 30
0.0
 10
73.828200
 20
26.376900
 30
0.0
 10
73.731800
 20
26.236100
 30
0.0
  0
SPLINE
  5
103
100
AcDbEntity
  8
View001
 62
7
100
AcDbSpline
 70
8
 71
3
 72
8
 73
4
 74
0
 40
0
 40
0
 40
0
 40
0
 40
1
 40
1
 40
1
 40
1
 10
73.731800
 20
26.236100
 30
0.0
 10
73.632200
 20
26.089900
 30
0.0
 10
73.497000
 20
25.970600
 30
0.0
 10
73.347800
 20
25.877100
 30
0.0
  0
SPLINE
  5
104
100
AcDbEntity
  8
View001
 62
7
100
AcDbSpline
 70
8
 71
3
 72
8
 73
4
 74
0
 40
0
 40
0
 40
0
 40
0
 40
1
 40
1
 40
1
 40
1
 10
73.347800
 20
25.877100
 30
0.0
 10
73.035600
 20
25.683200
 30
0.0
 10
72.665500
 20
25.594400
 30
0.0
 10
72.300000
 20
25.593700
 30
0.0
  0
SPLINE
  5
105
100
AcDbEntity
  8
View001
 62
7
100
AcDbSpline
 70
8
 71
3
 72
8
 73
4
 74
0
 40
0
 40
0
 40
0
 40
0
 40
1
 40
1
 40
1
 40
1
 10
73.887500
 20
26.716900
 30
0.0
 10
73.887500
 20
27.137931
 30
0.0
 10
73.720246
 20
27.541718
 30
0.0
 10
73.422532
 20
27.839432
 30
0.0
  0
SPLINE
  5
106
100
AcDbEntity
  8
View001
 62
7
100
AcDbSpline
 70
8
 71
3
 72
8
 73
4
 74
0
 40
0
 40
0
 40
0
 40
0
 40
1
 40
1
 40
1
 40
1
 10
73.422532
 20
27.839432
 30
0.0
 10
73.124818
 20
28.137146
 30
0.0
 10
72.721031
 20
28.304400
 30
0.0
 10
72.300000
 20
28.304400
 30
0.0
  0
SPLINE
  5
107
100
AcDbEntity
  8
View001
 62
7
100
AcDbSpline
 70
8
 71
3
 72
8
 73
4
 74
0
 40
0
 40
0
 40
0
 40
0
 40
1
 40
1
 40
1
 40
1
 10
71.176800
 20
26.716900
 30
0.0
 10
71.177500
 20
27.081100
 30
0.0
 10
71.265700
 20
27.449900
 30
0.0
 10
71.458100
 20
27.761300
 30
0.0
  0
SPLINE
  5
108
100
AcDbEntity
  8
View001
 62
7
100
AcDbSpline
 70
8
 71
3
 72
8
 73
4
 74
0
 40
0
 40
0
 40
0
 40
0
 40
1
 40
1
 40
1
 40
1
 10
71.458100
 20
27.761300
 30
0.0
 10
71.551900
 20
27.911800
 30
0.0
 10
71.671700
 20
28.048200
 30
0.0
 10
71.818900
 20
28.148500
 30
0.0
  0
SPLINE
  5
109
100
AcDbEntity
  8
View001
 62
7
100
AcDbSpline
 70
8
 71
3
 72
8
 73
4
 74
0
 40
0
 40
0
 40
0
 40
0
 40
1
 40
1
 40
1
 40
1
 10
71.818900
 20
28.148500
 30
0.0
 10
71.959700
 20
28.245000
 30
0.0
 10
72.128100
 20
28.305100
 30
0.0
 10
72.300000
 20
28.304400
 30
0.0
  0
LWPOLYLINE
  5
10a
100
AcDbEntity
  8
View001
 62
7
100
AcDbPolyline
 90
2
 70
0
 10
72.300000
 20
25.593700
 30
0.0
 10
72.300000
 20
18.183100
 30
0.0
  0
LWPOLYLINE
  5
10b
100
AcDbEntity
  8
View001
 62
7
100
AcDbPolyline
 90
2
 70
0
 10
65.317800
 20
26.716900
 30
0.0
 10
71.176800
 20
26.716900
 30
0.0
  0
LWPOLYLINE
  5
10c
100
AcDbEntity
  8
View001
 62
7
100
AcDbPolyline
 90
2
 70
0
 10
64.231900
 20
23.733400
 30
0.0
 10
65.317800
 20
26.716900
 30
0.0
  0
LWPOLYLINE
  5
10d
100
AcDbEntity
  8
View001
 62
7
100
AcDbPolyline
 90
2
 70
0
 10
28.429600
 20
36.764300
 30
0.0
 10
64.231900
 20
23.733400
 30
0.0
  0
SPLINE
  5
10e
100
AcDbEntity
  8
View001
 62
7
100
AcDbSpline
 70
8
 71
3
 72
8
 73
4
 74
0
 40
0
 40
0
 40
0
 40
0
 40
1
 40
1
 40
1
 40
1
 10
58.222200
 20
229.917000
 30
0.0
 10
55.020295
 20
229.917000
 30
0.0
 10
52.319282
 20
227.533137
 30
0.0
 10
51.921414
 20
224.356048
 30
0.0
  0
LWPOLYLINE
  5
10f
100
AcDbEntity
  8
View001
 62
7
100
AcDbPolyline
 90
2
 70
0
 10
51.921400
 20
224.356000
 30
0.0
 10
28.429600
 20
36.764300
 30
0.0
  0
SPLINE
  5
110
100
AcDbEntity
  8
View001
 62
7
100
AcDbSpline
 70
8
 71
3
 72
8
 73
4
 74
0
 40
0
 40
0
 40
0
 40
0
 40
1
 40
1
 40
1
 40
1
 10
245.078787
 20
224.356038
 30
0.0
 10
244.680924
 20
227.533132
 30
0.0
 10
241.979908
 20
229.917000
 30
0.0
 10
238.778000
 20
229.917000
 30
0.0
  0
LWPOLYLINE
  5
111
100
AcDbEntity
  8
View001
 62
7
100
AcDbPolyline
 90
2
 70
0
 10
58.222200
 20
229.917000
 30
0.0
 10
238.778000
 20
229.917000
 30
0.0
  0
LWPOLYLINE
  5
112
100
AcDbEntity
  8
View001
 62
7
100
AcDbPolyline
 90
4
 70
0
 10
245.079000
 20
224.356000
 30
0.0
 10
268.570000
 20
36.764300
 30
0.0
 10
232.768000
 20
23.733400
 30
0.0
 10
231.682000
 20
26.716900
 30
0.0
  0
SPLINE
  5
113
100
AcDbEntity
  8
View001
 62
7
100
AcDbSpline
 70
8
 71
3
 72
8
 73
4
 74
0
 40
0
 40
0
 40
0
 40
0
 40
1
 40
1
 40
1
 40
1
 10
224.700000
 20
28.304400
 30
0.0
 10
224.872000
 20
28.305100
 30
0.0
 10
225.040000
 20
28.245100
 30
0.0
 10
225.181000
 20
28.148700
 30
0.0
  0
SPLINE
  5
114
100
AcDbEntity
  8
View001
 62
7
100
AcDbSpline
 70
8
 71
3
 72
8
 73
4
 74
0
 40
0
 40
0
 40
0
 40
0
 40
1
 40
1
 40
1
 40
1
 10
225.181000
 20
28.148700
 30
0.0
 10
225.327000
 20
28.049100
 30
0.0
 10
225.446000
 20
27.913900
 30
0.0
 10
225.540000
 20
27.764700
 30
0.0
  0
SPLINE
  5
115
100
AcDbEntity
  8
View001
 62
7
100
AcDbSpline
 70
8
 71
3
 72
8
 73
4
 74
0
 40
0
 40
0
 40
0
 40
0
 40
1
 40
1
 40
1
 40
1
 10
225.540000
 20
27.764700
 30
0.0
 10
225.734000
 20
27.452500
 30
0.0
 10
225.823000
 20
27.082400
 30
0.0
 10
225.823000
 20
26.716900
 30
0.0
  0
SPLINE
  5
116
100
AcDbEntity
  8
View001
 62
7
100
AcDbSpline
 70
8
 71
3
 72
8
 73
4
 74
0
 40
0
 40
0
 40
0
 40
0
 40
1
 40
1
 40
1
 40
1
 10
224.700000
 20
28.304400
 30
0.0
 10
224.278969
 20
28.304400
 30
0.0
 10
223.875182
 20
28.137146
 30
0.0
 10
223.577468
 20
27.839432
 30
0.0
  0
SPLINE
  5
117
100
AcDbEntity
  8
View001
 62
7
100
AcDbSpline
 70
8
 71
3
 72
8
 73
4
 74
0
 40
0
 40
0
 40
0
 40
0
 40
1
 40
1
 40
1
 40
1
 10
223.577468
 20
27.839432
 30
0.0
 10
223.279754
 20
27.541718
 30
0.0
 10
223.112500
 20
27.137931
 30
0.0
 10
223.112500
 20
26.716900
 30
0.0
  0
SPLINE
  5
118
100
AcDbEntity
  8
View001
 62
7
100
AcDbSpline
 70
8
 71
3
 72
8
 73
4
 74
0
 40
0
 40
0
 40
0
 40
0
 40
1
 40
1
 40
1
 40
1
 10
224.700000
 20
25.593700
 30
0.0
 10
224.334000
 20
25.594400
 30
0.0
 10
223.964000
 20
25.683300
 30
0.0
 10
223.652000
 20
25.877500
 30
0.0
  0
SPLINE
  5
119
100
AcDbEntity
  8
View001
 62
7
100
AcDbSpline
 70
8
 71
3
 72
8
 73
4
 74
0
 40
0
 40
0
 40
0
 40
0
 40
1
 40
1
 40
1
 40
1
 10
223.652000
 20
25.877500
 30
0.0
 10
223.502000
 20
25.971200
 30
0.0
 10
223.367000
 20
26.090600
 30
0.0
 10
223.268000
 20
26.237000
 30
0.0
  0
SPLINE
  5
11a
100
AcDbEntity
  8
View001
 62
7
100
AcDbSpline
 70
8
 71
3
 72
8
 73
4
 74
0
 40
0
 40
0
 40
0
 40
0
 40
1
 40
1
 40
1
 40
1
 10
223.268000
 20
26.237000
 30
0.0
 10
223.172000
 20
26.377600
 30
0.0
 10
223.112000
 20
26.545400
 30
0.0
 10
223.112000
 20
26.716900
 30
0.0
  0
LWPOLYLINE
  5
11b
100
AcDbEntity
  8
View001
 62
7
100
AcDbPolyline
 90
2
 70
0
 10
225.823000
 20
26.716900
 30
0.0
 10
231.682000
 20
26.716900
 30
0.0
  0
LWPOLYLINE
  5
11c
100
AcDbEntity
  8
View001
 62
7
100
AcDbPolyline
 90
2
 70
0
 10
224.700000
 20
18.183100
 30
0.0
 10
224.700000
 20
25.593700
 30
0.0
  0
LWPOLYLINE
  5
11d
100
AcDbEntity
  8
View001
 62
7
100
AcDbPolyline
 90
3
 70
0
 10
224.700000
 20
18.183100
 30
0.0
 10
227.875000
 20
18.183100
 30
0.0
 10
227.875000
 20
-19.916900
 30
0.0
  0
SPLINE
  5
11e
100
AcDbEntity
  8
View001
 62
7
100
AcDbSpline
 70
8
 71
3
 72
8
 73
4
 74
0
 40
0
 40
0
 40
0
 40
0
 40
1
 40
1
 40
1
 40
1
 10
85.000000
 20
3.578106
 30
0.0
 10
82.545095
 20
3.578106
 30
0.0
 10
80.555001
 20
1.588011
 30
0.0
 10
80.555001
 20
-0.866894
 30
0.0
  0
SPLINE
  5
11f
100
AcDbEntity
  8
View001
 62
7
100
AcDbSpline
 70
8
 71
3
 72
8
 73
4
 74
0
 40
0
 40
0
 40
0
 40
0
 40
1
 40
1
 40
1
 40
1
 10
80.555001
 20
-0.866894
 30
0.0
 10
80.555001
 20
-3.321800
 30
0.0
 10
82.545095
 20
-5.311894
 30
0.0
 10
85.000000
 20
-5.311894
 30
0.0
  0
LWPOLYLINE
  5
120
100
AcDbEntity
  8
View001
 62
7
100
AcDbPolyline
 90
2
 70
0
 10
69.125000
 20
-19.916900
 30
0.0
 10
227.875000
 20
-19.916900
 30
0.0
  0
SPLINE
  5
121
100
AcDbEntity
  8
View001
 62
7
100
AcDbSpline
 70
8
 71
3
 72
8
 73
4
 74
0
 40
0
 40
0
 40
0
 40
0
 40
1
 40
1
 40
1
 40
1
 10
135.800000
 20
-5.311894
 30
0.0
 10
138.254906
 20
-5.311894
 30
0.0
 10
140.245000
 20
-3.321800
 30
0.0
 10
140.245000
 20
-0.866894
 30
0.0
  0
SPLINE
  5
122
100
AcDbEntity
  8
View001
 62
7
100
AcDbSpline
 70
8
 71
3
 72
8
 73
4
 74
0
 40
0
 40
0
 40
0
 40
0
 40
1
 40
1
 40
1
 40
1
 10
140.245000
 20
-0.866894
 30
0.0
 10
140.245000
 20
1.588011
 30
0.0
 10
138.254906
 20
3.578106
 30
0.0
 10
135.800000
 20
3.578106
 30
0.0
  0
LWPOLYLINE
  5
123
100
AcDbEntity
  8
View001
 62
7
100
AcDbPolyline
 90
2
 70
0
 10
85.000000
 20
3.578110
 30
0.0
 10
135.800000
 20
3.578110
 30
0.0
  0
SPLINE
  5
124
100
AcDbEntity
  8
View001
 62
7
100
AcDbSpline
 70
8
 71
3
 72
8
 73
4
 74
0
 40
0
 40
0
 40
0
 40
0
 40
1
 40
1
 40
1
 40
1
 10
161.200000
 20
3.578106
 30
0.0
 10
158.745095
 20
3.578106
 30
0.0
 10
156.755001
 20
1.588011
 30
0.0
 10
156.755001
 20
-0.866894
 30
0.0
  0
SPLINE
  5
125
100
AcDbEntity
  8
View001
 62
7
100
AcDbSpline
 70
8
 71
3
 72
8
 73
4
 74
0
 40
0
 40
0
 40
0
 40
0
 40
1
 40
1
 40
1
 40
1
 10
156.755001
 20
-0.866894
 30
0.0
 10
156.755001
 20
-3.321800
 30
0.0
 10
158.745095
 20
-5.311894
 30
0.0
 10
161.200000
 20
-5.311894
 30
0.0
  0
LWPOLYLINE
  5
126
100
AcDbEntity
  8
View001
 62
7
100
AcDbPolyline
 90
2
 70
0
 10
85.000000
 20
-5.311890
 30
0.0
 10
135.800000
 20
-5.311890
 30
0.0
  0
SPLINE
  5
127
100
AcDbEntity
  8
View001
 62
7
100
AcDbSpline
 70
8
 71
3
 72
8
 73
4
 74
0
 40
0
 40
0
 40
0
 40
0
 40
1
 40
1
 40
1
 40
1
 10
212.000000
 20
-5.311894
 30
0.0
 10
214.454906
 20
-5.311894
 30
0.0
 10
216.445000
 20
-3.321800
 30
0.0
 10
216.445000
 20
-0.866894
 30
0.0
  0
SPLINE
  5
128
100
AcDbEntity
  8
View001
 62
7
100
AcDbSpline
 70
8
 71
3
 72
8
 73
4
 74
0
 40
0
 40
0
 40
0
 40
0
 40
1
 40
1
 40
1
 40
1
 10
216.445000
 20
-0.866894
 30
0.0
 10
216.445000
 20
1.588011
 30
0.0
 10
214.454906
 20
3.578106
 30
0.0
 10
212.000000
 20
3.578106
 30
0.0
  0
LWPOLYLINE
  5
129
100
AcDbEntity
  8
View001
 62
7
100
AcDbPolyline
 90
2
 70
0
 10
161.200000
 20
3.578110
 30
0.0
 10
212.000000
 20
3.578110
 30
0.0
  0
SPLINE
  5
12a
100
AcDbEntity
  8
View001
 62
7
100
AcDbSpline
 70
8
 71
3
 72
8
 73
4
 74
0
 40
0
 40
0
 40
0
 40
0
 40
1
 40
1
 40
1
 40
1
 10
194.855000
 20
170.862000
 30
0.0
 10
194.855000
 20
169.273955
 30
0.0
 10
195.702212
 20
167.806540
 30
0.0
 10
197.077500
 20
167.012517
 30
0.0
  0
SPLINE
  5
12b
100
AcDbEntity
  8
View001
 62
7
100
AcDbSpline
 70
8
 71
3
 72
8
 73
4
 74
0
 40
0
 40
0
 40
0
 40
0
 40
1
 40
1
 40
1
 40
1
 10
197.077500
 20
167.012517
 30
0.0
 10
198.452788
 20
166.218494
 30
0.0
 10
200.147212
 20
166.218494
 30
0.0
 10
201.522500
 20
167.012517
 30
0.0
  0
SPLINE
  5
12c
100
AcDbEntity
  8
View001
 62
7
100
AcDbSpline
 70
8
 71
3
 72
8
 73
4
 74
0
 40
0
 40
0
 40
0
 40
0
 40
1
 40
1
 40
1
 40
1
 10
201.522500
 20
167.012517
 30
0.0
 10
202.897788
 20
167.806540
 30
0.0
 10
203.745000
 20
169.273955
 30
0.0
 10
203.745000
 20
170.862000
 30
0.0
  0
LWPOLYLINE
  5
12d
100
AcDbEntity
  8
View001
 62
7
100
AcDbPolyline
 90
2
 70
0
 10
161.200000
 20
-5.311890
 30
0.0
 10
212.000000
 20
-5.311890
 30
0.0
  0
SPLINE
  5
12e
100
AcDbEntity
  8
View001
 62
7
100
AcDbSpline
 70
8
 71
3
 72
8
 73
4
 74
0
 40
0
 40
0
 40
0
 40
0
 40
1
 40
1
 40
1
 40
1
 10
203.745000
 20
212.772000
 30
0.0
 10
203.745000
 20
214.360046
 30
0.0
 10
202.897788
 20
215.827460
 30
0.0
 10
201.522500
 20
216.621483
 30
0.0
  0
SPLINE
  5
12f
100
AcDbEntity
  8
View001
 62
7
100
AcDbSpline
 70
8
 71
3
 72
8
 73
4
 74
0
 40
0
 40
0
 40
0
 40
0
 40
1
 40
1
 40
1
 40
1
 10
201.522500
 20
216.621483
 30
0.0
 10
200.147212
 20
217.415506
 30
0.0
 10
198.452788
 20
217.415506
 30
0.0
 10
197.077500
 20
216.621483
 30
0.0
  0
SPLINE
  5
130
100
AcDbEntity
  8
View001
 62
7
100
AcDbSpline
 70
8
 71
3
 72
8
 73
4
 74
0
 40
0
 40
0
 40
0
 40
0
 40
1
 40
1
 40
1
 40
1
 10
197.077500
 20
216.621483
 30
0.0
 10
195.702212
 20
215.827460
 30
0.0
 10
194.855000
 20
214.360046
 30
0.0
 10
194.855000
 20
212.772000
 30
0.0
  0
LWPOLYLINE
  5
131
100
AcDbEntity
  8
View001
 62
7
100
AcDbPolyline
 90
2
 70
0
 10
194.855000
 20
170.862000
 30
0.0
 10
194.855000
 20
212.772000
 30
0.0
  0
SPLINE
  5
132
100
AcDbEntity
  8
View001
 62
7
100
AcDbSpline
 70
8
 71
3
 72
8
 73
4
 74
0
 40
0
 40
0
 40
0
 40
0
 40
1
 40
1
 40
1
 40
1
 10
169.455000
 20
170.862000
 30
0.0
 10
169.455000
 20
169.273955
 30
0.0
 10
170.302212
 20
167.806540
 30
0.0
 10
171.677500
 20
167.012517
 30
0.0
  0
SPLINE
  5
133
100
AcDbEntity
  8
View001
 62
7
100
AcDbSpline
 70
8
 71
3
 72
8
 73
4
 74
0
 40
0
 40
0
 40
0
 40
0
 40
1
 40
1
 40
1
 40
1
 10
171.677500
 20
167.012517
 30
0.0
 10
173.052788
 20
166.218494
 30
0.0
 10
174.747212
 20
166.218494
 30
0.0
 10
176.122500
 20
167.012517
 30
0.0
  0
SPLINE
  5
134
100
AcDbEntity
  8
View001
 62
7
100
AcDbSpline
 70
8
 71
3
 72
8
 73
4
 74
0
 40
0
 40
0
 40
0
 40
0
 40
1
 40
1
 40
1
 40
1
 10
176.122500
 20
167.012517
 30
0.0
 10
177.497788
 20
167.806540
 30
0.0
 10
178.345000
 20
169.273955
 30
0.0
 10
178.345000
 20
170.862000
 30
0.0
  0
LWPOLYLINE
  5
135
100
AcDbEntity
  8
View001
 62
7
100
AcDbPolyline
 90
2
 70
0
 10
203.745000
 20
170.862000
 30
0.0
 10
203.745000
 20
212.772000
 30
0.0
  0
SPLINE
  5
136
100
AcDbEntity
  8
View001
 62
7
100
AcDbSpline
 70
8
 71
3
 72
8
 73
4
 74
0
 40
0
 40
0
 40
0
 40
0
 40
1
 40
1
 40
1
 40
1
 10
178.345000
 20
212.772000
 30
0.0
 10
178.345000
 20
214.360046
 30
0.0
 10
177.497788
 20
215.827460
 30
0.0
 10
176.122500
 20
216.621483
 30
0.0
  0
SPLINE
  5
137
100
AcDbEntity
  8
View001
 62
7
100
AcDbSpline
 70
8
 71
3
 72
8
 73
4
 74
0
 40
0
 40
0
 40
0
 40
0
 40
1
 40
1
 40
1
 40
1
 10
176.122500
 20
216.621483
 30
0.0
 10
174.747212
 20
217.415506
 30
0.0
 10
173.052788
 20
217.415506
 30
0.0
 10
171.677500
 20
216.621483
 30
0.0
  0
SPLINE
  5
138
100
AcDbEntity
  8
View001
 62
7
100
AcDbSpline
 70
8
 71
3
 72
8
 73
4
 74
0
 40
0
 40
0
 40
0
 40
0
 40
1
 40
1
 40
1
 40
1
 10
171.677500
 20
216.621483
 30
0.0
 10
170.302212
 20
215.827460
 30
0.0
 10
169.455000
 20
214.360046
 30
0.0
 10
169.455000
 20
212.772000
 30
0.0
  0
LWPOLYLINE
  5
139
100
AcDbEntity
  8
View001
 62
7
100
AcDbPolyline
 90
2
 70
0
 10
169.455000
 20
170.862000
 30
0.0
 10
169.455000
 20
212.772000
 30
0.0
  0
SPLINE
  5
13a
100
AcDbEntity
  8
View001
 62
7
100
AcDbSpline
 70
8
 71
3
 72
8
 73
4
 74
0
 40
0
 40
0
 40
0
 40
0
 40
1
 40
1
 40
1
 40
1
 10
144.055000
 20
170.862000
 30
0.0
 10
144.055000
 20
169.273955
 30
0.0
 10
144.902212
 20
167.806540
 30
0.0
 10
146.277500
 20
167.012517
 30
0.0
  0
SPLINE
  5
13b
100
AcDbEntity
  8
View001
 62
7
100
AcDbSpline
 70
8
 71
3
 72
8
 73
4
 74
0
 40
0
 40
0
 40
0
 40
0
 40
1
 40
1
 40
1
 40
1
 10
146.277500
 20
167.012517
 30
0.0
 10
147.652788
 20
166.218494
 30
0.0
 10
149.347212
 20
166.218494
 30
0.0
 10
150.722500
 20
167.012517
 30
0.0
  0
SPLINE
  5
13c
100
AcDbEntity
  8
View001
 62
7
100
AcDbSpline
 70
8
 71
3
 72
8
 73
4
 74
0
 40
0
 40
0
 40
0
 40
0
 40
1
 40
1
 40
1
 40
1
 10
150.722500
 20
167.012517
 30
0.0
 10
152.097788
 20
167.806540
 30
0.0
 10
152.945000
 20
169.273955
 30
0.0
 10
152.945000
 20
170.862000
 30
0.0
  0
LWPOLYLINE
  5
13d
100
AcDbEntity
  8
View001
 62
7
100
AcDbPolyline
 90
2
 70
0
 10
178.345000
 20
170.862000
 30
0.0
 10
178.345000
 20
212.772000
 30
0.0
  0
SPLINE
  5
13e
100
AcDbEntity
  8
View001
 62
7
100
AcDbSpline
 70
8
 71
3
 72
8
 73
4
 74
0
 40
0
 40
0
 40
0
 40
0
 40
1
 40
1
 40
1
 40
1
 10
152.945000
 20
212.772000
 30
0.0
 10
152.945000
 20
214.360046
 30
0.0
 10
152.097788
 20
215.827460
 30
0.0
 10
150.722500
 20
216.621483
 30
0.0
  0
SPLINE
  5
13f
100
AcDbEntity
  8
View001
 62
7
100
AcDbSpline
 70
8
 71
3
 72
8
 73
4
 74
0
 40
0
 40
0
 40
0
 40
0
 40
1
 40
1
 40
1
 40
1
 10
150.722500
 20
216.621483
 30
0.0
 10
149.347212
 20
217.415506
 30
0.0
 10
147.652788
 20
217.415506
 30
0.0
 10
146.277500
 20
216.621483
 30
0.0
  0
SPLINE
  5
140
100
AcDbEntity
  8
View001
 62
7
100
AcDbSpline
 70
8
 71
3
 72
8
 73
4
 74
0
 40
0
 40
0
 40
0
 40
0
 40
1
 40
1
 40
1
 40
1
 10
146.277500
 20
216.621483
 30
0.0
 10
144.902212
 20
215.827460
 30
0.0
 10
144.055000
 20
214.360046
 30
0.0
 10
144.055000
 20
212.772000
 30
0.0
  0
LWPOLYLINE
  5
141
100
AcDbEntity
  8
View001
 62
7
100
AcDbPolyline
 90
2
 70
0
 10
144.055000
 20
170.862000
 30
0.0
 10
144.055000
 20
212.772000
 30
0.0
  0
SPLINE
  5
142
100
AcDbEntity
  8
View001
 62
7
100
AcDbSpline
 70
8
 71
3
 72
8
 73
4
 74
0
 40
0
 40
0
 40
0
 40
0
 40
1
 40
1
 40
1
 40
1
 10
118.655000
 20
170.862000
 30
0.0
 10
118.655000
 20
169.273955
 30
0.0
 10
119.502212
 20
167.806540
 30
0.0
 10
120.877500
 20
167.012517
 30
0.0
  0
SPLINE
  5
143
100
AcDbEntity
  8
View001
 62
7
100
AcDbSpline
 70
8
 71
3
 72
8
 73
4
 74
0
 40
0
 40
0
 40
0
 40
0
 40
1
 40
1
 40
1
 40
1
 10
120.877500
 20
167.012517
 30
0.0
 10
122.252788
 20
166.218494
 30
0.0
 10
123.947212
 20
166.218494
 30
0.0
 10
125.322500
 20
167.012517
 30
0.0
  0
SPLINE
  5
144
100
AcDbEntity
  8
View001
 62
7
100
AcDbSpline
 70
8
 71
3
 72
8
 73
4
 74
0
 40
0
 40
0
 40
0
 40
0
 40
1
 40
1
 40
1
 40
1
 10
125.322500
 20
167.012517
 30
0.0
 10
126.697788
 20
167.806540
 30
0.0
 10
127.545000
 20
169.273955
 30
0.0
 10
127.545000
 20
170.862000
 30
0.0
  0
LWPOLYLINE
  5
145
100
AcDbEntity
  8
View001
 62
7
100
AcDbPolyline
 90
2
 70
0
 10
152.945000
 20
170.862000
 30
0.0
 10
152.945000
 20
212.772000
 30
0.0
  0
SPLINE
  5
146
100
AcDbEntity
  8
View001
 62
7
100
AcDbSpline
 70
8
 71
3
 72
8
 73
4
 74
0
 40
0
 40
0
 40
0
 40
0
 40
1
 40
1
 40
1
 40
1
 10
127.545000
 20
212.772000
 30
0.0
 10
127.545000
 20
214.360046
 30
0.0
 10
126.697788
 20
215.827460
 30
0.0
 10
125.322500
 20
216.621483
 30
0.0
  0
SPLINE
  5
147
100
AcDbEntity
  8
View001
 62
7
100
AcDbSpline
 70
8
 71
3
 72
8
 73
4
 74
0
 40
0
 40
0
 40
0
 40
0
 40
1
 40
1
 40
1
 40
1
 10
125.322500
 20
216.621483
 30
0.0
 10
123.947212
 20
217.415506
 30
0.0
 10
122.252788
 20
217.415506
 30
0.0
 10
120.877500
 20
216.621483
 30
0.0
  0
SPLINE
  5
148
100
AcDbEntity
  8
View001
 62
7
100
AcDbSpline
 70
8
 71
3
 72
8
 73
4
 74
0
 40
0
 40
0
 40
0
 40
0
 40
1
 40
1
 40
1
 40
1
 10
120.877500
 20
216.621483
 30
0.0
 10
119.502212
 20
215.827460
 30
0.0
 10
118.655000
 20
214.360046
 30
0.0
 10
118.655000
 20
212.772000
 30
0.0
  0
LWPOLYLINE
  5
149
100
AcDbEntity
  8
View001
 62
7
100
AcDbPolyline
 90
2
 70
0
 10
118.655000
 20
170.862000
 30
0.0
 10
118.655000
 20
212.772000
 30
0.0
  0
SPLINE
  5
14a
100
AcDbEntity
  8
View001
 62
7
100
AcDbSpline
 70
8
 71
3
 72
8
 73
4
 74
0
 40
0
 40
0
 40
0
 40
0
 40
1
 40
1
 40
1
 40
1
 10
93.255000
 20
170.862000
 30
0.0
 10
93.255000
 20
169.273955
 30
0.0
 10
94.102212
 20
167.806540
 30
0.0
 10
95.477500
 20
167.012517
 30
0.0
  0
SPLINE
  5
14b
100
AcDbEntity
  8
View001
 62
7
100
AcDbSpline
 70
8
 71
3
 72
8
 73
4
 74
0
 40
0
 40
0
 40
0
 40
0
 40
1
 40
1
 40
1
 40
1
 10
95.477500
 20
167.012517
 30
0.0
 10
96.852788
 20
166.218494
 30
0.0
 10
98.547212
 20
166.218494
 30
0.0
 10
99.922500
 20
167.012517
 30
0.0
  0
SPLINE
  5
14c
100
AcDbEntity
  8
View001
 62
7
100
AcDbSpline
 70
8
 71
3
 72
8
 73
4
 74
0
 40
0
 40
0
 40
0
 40
0
 40
1
 40
1
 40
1
 40
1
 10
99.922500
 20
167.012517
 30
0.0
 10
101.297788
 20
167.806540
 30
0.0
 10
102.145000
 20
169.273955
 30
0.0
 10
102.145000
 20
170.862000
 30
0.0
  0
LWPOLYLINE
  5
14d
100
AcDbEntity
  8
View001
 62
7
100
AcDbPolyline
 90
2
 70
0
 10
127.545000
 20
170.862000
 30
0.0
 10
127.545000
 20
212.772000
 30
0.0
  0
SPLINE
  5
14e
100
AcDbEntity
  8
View001
 62
7
100
AcDbSpline
 70
8
 71
3
 72
8
 73
4
 74
0
 40
0
 40
0
 40
0
 40
0
 40
1
 40
1
 40
1
 40
1
 10
102.145000
 20
212.772000
 30
0.0
 10
102.145000
 20
214.360046
 30
0.0
 10
101.297788
 20
215.827460
 30
0.0
 10
99.922500
 20
216.621483
 30
0.0
  0
SPLINE
  5
14f
100
AcDbEntity
  8
View001
 62
7
100
AcDbSpline
 70
8
 71
3
 72
8
 73
4
 74
0
 40
0
 40
0
 40
0
 40
0
 40
1
 40
1
 40
1
 40
1
 10
99.922500
 20
216.621483
 30
0.0
 10
98.547212
 20
217.415506
 30
0.0
 10
96.852788
 20
217.415506
 30
0.0
 10
95.477500
 20
216.621483
 30
0.0
  0
SPLINE
  5
150
100
AcDbEntity
  8
View001
 62
7
100
AcDbSpline
 70
8
 71
3
 72
8
 73
4
 74
0
 40
0
 40
0
 40
0
 40
0
 40
1
 40
1
 40
1
 40
1
 10
95.477500
 20
216.621483
 30
0.0
 10
94.102212
 20
215.827460
 30
0.0
 10
93.255000
 20
214.360046
 30
0.0
 10
93.255000
 20
212.772000
 30
0.0
  0
LWPOLYLINE
  5
151
100
AcDbEntity
  8
View001
 62
7
100
AcDbPolyline
 90
2
 70
0
 10
93.255000
 20
170.862000
 30
0.0
 10
93.255000
 20
212.772000
 30
0.0
  0
SPLINE
  5
152
100
AcDbEntity
  8
View001
 62
7
100
AcDbSpline
 70
8
 71
3
 72
8
 73
4
 74
0
 40
0
 40
0
 40
0
 40
0
 40
1
 40
1
 40
1
 40
1
 10
144.055000
 20
43.861900
 30
0.0
 10
144.055000
 20
42.273855
 30
0.0
 10
144.902212
 20
40.806440
 30
0.0
 10
146.277500
 20
40.012417
 30
0.0
  0
SPLINE
  5
153
100
AcDbEntity
  8
View001
 62
7
100
AcDbSpline
 70
8
 71
3
 72
8
 73
4
 74
0
 40
0
 40
0
 40
0
 40
0
 40
1
 40
1
 40
1
 40
1
 10
146.277500
 20
40.012417
 30
0.0
 10
147.652788
 20
39.218394
 30
0.0
 10
149.347212
 20
39.218394
 30
0.0
 10
150.722500
 20
40.012417
 30
0.0
  0
SPLINE
  5
154
100
AcDbEntity
  8
View001
 62
7
100
AcDbSpline
 70
8
 71
3
 72
8
 73
4
 74
0
 40
0
 40
0
 40
0
 40
0
 40
1
 40
1
 40
1
 40
1
 10
150.722500
 20
40.012417
 30
0.0
 10
152.097788
 20
40.806440
 30
0.0
 10
152.945000
 20
42.273855
 30
0.0
 10
152.945000
 20
43.861900
 30
0.0
  0
LWPOLYLINE
  5
155
100
AcDbEntity
  8
View001
 62
7
100
AcDbPolyline
 90
2
 70
0
 10
102.145000
 20
170.862000
 30
0.0
 10
102.145000
 20
212.772000
 30
0.0
  0
SPLINE
  5
156
100
AcDbEntity
  8
View001
 62
7
100
AcDbSpline
 70
8
 71
3
 72
8
 73
4
 74
0
 40
0
 40
0
 40
0
 40
0
 40
1
 40
1
 40
1
 40
1
 10
152.945000
 20
85.771900
 30
0.0
 10
152.945000
 20
87.359946
 30
0.0
 10
152.097788
 20
88.827360
 30
0.0
 10
150.722500
 20
89.621383
 30
0.0
  0
SPLINE
  5
157
100
AcDbEntity
  8
View001
 62
7
100
AcDbSpline
 70
8
 71
3
 72
8
 73
4
 74
0
 40
0
 40
0
 40
0
 40
0
 40
1
 40
1
 40
1
 40
1
 10
150.722500
 20
89.621383
 30
0.0
 10
149.347212
 20
90.415406
 30
0.0
 10
147.652788
 20
90.415406
 30
0.0
 10
146.277500
 20
89.621383
 30
0.0
  0
SPLINE
  5
158
100
AcDbEntity
  8
View001
 62
7
100
AcDbSpline
 70
8
 71
3
 72
8
 73
4
 74
0
 40
0
 40
0
 40
0
 40
0
 40
1
 40
1
 40
1
 40
1
 10
146.277500
 20
89.621383
 30
0.0
 10
144.902212
 20
88.827360
 30
0.0
 10
144.055000
 20
87.359946
 30
0.0
 10
144.055000
 20
85.771900
 30
0.0
  0
LWPOLYLINE
  5
159
100
AcDbEntity
  8
View001
 62
7
100
AcDbPolyline
 90
2
 70
0
 10
144.055000
 20
43.861900
 30
0.0
 10
144.055000
 20
85.771900
 30
0.0
  0
SPLINE
  5
15a
100
AcDbEntity
  8
View001
 62
7
100
AcDbSpline
 70
8
 71
3
 72
8
 73
4
 74
0
 40
0
 40
0
 40
0
 40
0
 40
1
 40
1
 40
1
 40
1
 10
169.455000
 20
43.861900
 30
0.0
 10
169.455000
 20
42.273855
 30
0.0
 10
170.302212
 20
40.806440
 30
0.0
 10
171.677500
 20
40.012417
 30
0.0
  0
SPLINE
  5
15b
100
AcDbEntity
  8
View001
 62
7
100
AcDbSpline
 70
8
 71
3
 72
8
 73
4
 74
0
 40
0
 40
0
 40
0
 40
0
 40
1
 40
1
 40
1
 40
1
 10
171.677500
 20
40.012417
 30
0.0
 10
173.052788
 20
39.218394
 30
0.0
 10
174.747212
 20
39.218394
 30
0.0
 10
176.122500
 20
40.012417
 30
0.0
  0
SPLINE
  5
15c
100
AcDbEntity
  8
View001
 62
7
100
AcDbSpline
 70
8
 71
3
 72
8
 73
4
 74
0
 40
0
 40
0
 40
0
 40
0
 40
1
 40
1
 40
1
 40
1
 10
176.122500
 20
40.012417
 30
0.0
 10
177.497788
 20
40.806440
 30
0.0
 10
178.345000
 20
42.273855
 30
0.0
 10
178.345000
 20
43.861900
 30
0.0
  0
LWPOLYLINE
  5
15d
100
AcDbEntity
  8
View001
 62
7
100
AcDbPolyline
 90
2
 70
0
 10
152.945000
 20
43.861900
 30
0.0
 10
152.945000
 20
85.771900
 30
0.0
  0
SPLINE
  5
15e
100
AcDbEntity
  8
View001
 62
7
100
AcDbSpline
 70
8
 71
3
 72
8
 73
4
 74
0
 40
0
 40
0
 40
0
 40
0
 40
1
 40
1
 40
1
 40
1
 10
178.345000
 20
85.771900
 30
0.0
 10
178.345000
 20
87.359946
 30
0.0
 10
177.497788
 20
88.827360
 30
0.0
 10
176.122500
 20
89.621383
 30
0.0
  0
SPLINE
  5
15f
100
AcDbEntity
  8
View001
 62
7
100
AcDbSpline
 70
8
 71
3
 72
8
 73
4
 74
0
 40
0
 40
0
 40
0
 40
0
 40
1
 40
1
 40
1
 40
1
 10
176.122500
 20
89.621383
 30
0.0
 10
174.747212
 20
90.415406
 30
0.0
 10
173.052788
 20
90.415406
 30
0.0
 10
171.677500
 20
89.621383
 30
0.0
  0
SPLINE
  5
160
100
AcDbEntity
  8
View001
 62
7
100
AcDbSpline
 70
8
 71
3
 72
8
 73
4
 74
0
 40
0
 40
0
 40
0
 40
0
 40
1
 40
1
 40
1
 40
1
 10
171.677500
 20
89.621383
 30
0.0
 10
170.302212
 20
88.827360
 30
0.0
 10
169.455000
 20
87.359946
 30
0.0
 10
169.455000
 20
85.771900
 30
0.0
  0
LWPOLYLINE
  5
161
100
AcDbEntity
  8
View001
 62
7
100
AcDbPolyline
 90
2
 70
0
 10
169.455000
 20
43.861900
 30
0.0
 10
169.455000
 20
85.771900
 30
0.0
  0
SPLINE
  5
162
100
AcDbEntity
  8
View001
 62
7
100
AcDbSpline
 70
8
 71
3
 72
8
 73
4
 74
0
 40
0
 40
0
 40
0
 40
0
 40
1
 40
1
 40
1
 40
1
 10
194.855000
 20
43.861900
 30
0.0
 10
194.855000
 20
42.273855
 30
0.0
 10
195.702212
 20
40.806440
 30
0.0
 10
197.077500
 20
40.012417
 30
0.0
  0
SPLINE
  5
163
100
AcDbEntity
  8
View001
 62
7
100
AcDbSpline
 70
8
 71
3
 72
8
 73
4
 74
0
 40
0
 40
0
 40
0
 40
0
 40
1
 40
1
 40
1
 40
1
 10
197.077500
 20
40.012417
 30
0.0
 10
198.452788
 20
39.218394
 30
0.0
 10
200.147212
 20
39.218394
 30
0.0
 10
201.522500
 20
40.012417
 30
0.0
  0
SPLINE
  5
164
100
AcDbEntity
  8
View001
 62
7
100
AcDbSpline
 70
8
 71
3
 72
8
 73
4
 74
0
 40
0
 40
0
 40
0
 40
0
 40
1
 40
1
 40
1
 40
1
 10
201.522500
 20
40.012417
 30
0.0
 10
202.897788
 20
40.806440
 30
0.0
 10
203.745000
 20
42.273855
 30
0.0
 10
203.745000
 20
43.861900
 30
0.0
  0
LWPOLYLINE
  5
165
100
AcDbEntity
  8
View001
 62
7
100
AcDbPolyline
 90
2
 70
0
 10
178.345000
 20
43.861900
 30
0.0
 10
178.345000
 20
85.771900
 30
0.0
  0
SPLINE
  5
166
100
AcDbEntity
  8
View001
 62
7
100
AcDbSpline
 70
8
 71
3
 72
8
 73
4
 74
0
 40
0
 40
0
 40
0
 40
0
 40
1
 40
1
 40
1
 40
1
 10
203.745000
 20
85.771900
 30
0.0
 10
203.745000
 20
87.359946
 30
0.0
 10
202.897788
 20
88.827360
 30
0.0
 10
201.522500
 20
89.621383
 30
0.0
  0
SPLINE
  5
167
100
AcDbEntity
  8
View001
 62
7
100
AcDbSpline
 70
8
 71
3
 72
8
 73
4
 74
0
 40
0
 40
0
 40
0
 40
0
 40
1
 40
1
 40
1
 40
1
 10
201.522500
 20
89.621383
 30
0.0
 10
200.147212
 20
90.415406
 30
0.0
 10
198.452788
 20
90.415406
 30
0.0
 10
197.077500
 20
89.621383
 30
0.0
  0
SPLINE
  5
168
100
AcDbEntity
  8
View001
 62
7
100
AcDbSpline
 70
8
 71
3
 72
8
 73
4
 74
0
 40
0
 40
0
 40
0
 40
0
 40
1
 40
1
 40
1
 40
1
 10
197.077500
 20
89.621383
 30
0.0
 10
195.702212
 20
88.827360
 30
0.0
 10
194.855000
 20
87.359946
 30
0.0
 10
194.855000
 20
85.771900
 30
0.0
  0
LWPOLYLINE
  5
169
100
AcDbEntity
  8
View001
 62
7
100
AcDbPolyline
 90
2
 70
0
 10
194.855000
 20
43.861900
 30
0.0
 10
194.855000
 20
85.771900
 30
0.0
  0
SPLINE
  5
16a
100
AcDbEntity
  8
View001
 62
7
100
AcDbSpline
 70
8
 71
3
 72
8
 73
4
 74
0
 40
0
 40
0
 40
0
 40
0
 40
1
 40
1
 40
1
 40
1
 10
118.655000
 20
43.861900
 30
0.0
 10
118.655000
 20
42.273855
 30
0.0
 10
119.502212
 20
40.806440
 30
0.0
 10
120.877500
 20
40.012417
 30
0.0
  0
SPLINE
  5
16b
100
AcDbEntity
  8
View001
 62
7
100
AcDbSpline
 70
8
 71
3
 72
8
 73
4
 74
0
 40
0
 40
0
 40
0
 40
0
 40
1
 40
1
 40
1
 40
1
 10
120.877500
 20
40.012417
 30
0.0
 10
122.252788
 20
39.218394
 30
0.0
 10
123.947212
 20
39.218394
 30
0.0
 10
125.322500
 20
40.012417
 30
0.0
  0
SPLINE
  5
16c
100
AcDbEntity
  8
View001
 62
7
100
AcDbSpline
 70
8
 71
3
 72
8
 73
4
 74
0
 40
0
 40
0
 40
0
 40
0
 40
1
 40
1
 40
1
 40
1
 10
125.322500
 20
40.012417
 30
0.0
 10
126.697788
 20
40.806440
 30
0.0
 10
127.545000
 20
42.273855
 30
0.0
 10
127.545000
 20
43.861900
 30
0.0
  0
LWPOLYLINE
  5
16d
100
AcDbEntity
  8
View001
 62
7
100
AcDbPolyline
 90
2
 70
0
 10
203.745000
 20
43.861900
 30
0.0
 10
203.745000
 20
85.771900
 30
0.0
  0
SPLINE
  5
16e
100
AcDbEntity
  8
View001
 62
7
100
AcDbSpline
 70
8
 71
3
 72
8
 73
4
 74
0
 40
0
 40
0
 40
0
 40
0
 40
1
 40
1
 40
1
 40
1
 10
127.545000
 20
85.771900
 30
0.0
 10
127.545000
 20
87.359946
 30
0.0
 10
126.697788
 20
88.827360
 30
0.0
 10
125.322500
 20
89.621383
 30
0.0
  0
SPLINE
  5
16f
100
AcDbEntity
  8
View001
 62
7
100
AcDbSpline
 70
8
 71
3
 72
8
 73
4
 74
0
 40
0
 40
0
 40
0
 40
0
 40
1
 40
1
 40
1
 40
1
 10
125.322500
 20
89.621383
 30
0.0
 10
123.947212
 20
90.415406
 30
0.0
 10
122.252788
 20
90.415406
 30
0.0
 10
120.877500
 20
89.621383
 30
0.0
  0
SPLINE
  5
170
100
AcDbEntity
  8
View001
 62
7
100
AcDbSpline
 70
8
 71
3
 72
8
 73
4
 74
0
 40
0
 40
0
 40
0
 40
0
 40
1
 40
1
 40
1
 40
1
 10
120.877500
 20
89.621383
 30
0.0
 10
119.502212
 20
88.827360
 30
0.0
 10
118.655000
 20
87.359946
 30
0.0
 10
118.655000
 20
85.771900
 30
0.0
  0
LWPOLYLINE
  5
171
100
AcDbEntity
  8
View001
 62
7
100
AcDbPolyline
 90
2
 70
0
 10
118.655000
 20
43.861900
 30
0.0
 10
118.655000
 20
85.771900
 30
0.0
  0
SPLINE
  5
172
100
AcDbEntity
  8
View001
 62
7
100
AcDbSpline
 70
8
 71
3
 72
8
 73
4
 74
0
 40
0
 40
0
 40
0
 40
0
 40
1
 40
1
 40
1
 40
1
 10
93.255000
 20
43.861900
 30
0.0
 10
93.255000
 20
42.273855
 30
0.0
 10
94.102212
 20
40.806440
 30
0.0
 10
95.477500
 20
40.012417
 30
0.0
  0
SPLINE
  5
173
100
AcDbEntity
  8
View001
 62
7
100
AcDbSpline
 70
8
 71
3
 72
8
 73
4
 74
0
 40
0
 40
0
 40
0
 40
0
 40
1
 40
1
 40
1
 40
1
 10
95.477500
 20
40.012417
 30
0.0
 10
96.852788
 20
39.218394
 30
0.0
 10
98.547212
 20
39.218394
 30
0.0
 10
99.922500
 20
40.012417
 30
0.0
  0
SPLINE
  5
174
100
AcDbEntity
  8
View001
 62
7
100
AcDbSpline
 70
8
 71
3
 72
8
 73
4
 74
0
 40
0
 40
0
 40
0
 40
0
 40
1
 40
1
 40
1
 40
1
 10
99.922500
 20
40.012417
 30
0.0
 10
101.297788
 20
40.806440
 30
0.0
 10
102.145000
 20
42.273855
 30
0.0
 10
102.145000
 20
43.861900
 30
0.0
  0
LWPOLYLINE
  5
175
100
AcDbEntity
  8
View001
 62
7
100
AcDbPolyline
 90
2
 70
0
 10
127.545000
 20
43.861900
 30
0.0
 10
127.545000
 20
85.771900
 30
0.0
  0
SPLINE
  5
176
100
AcDbEntity
  8
View001
 62
7
100
AcDbSpline
 70
8
 71
3
 72
8
 73
4
 74
0
 40
0
 40
0
 40
0
 40
0
 40
1
 40
1
 40
1
 40
1
 10
102.145000
 20
85.771900
 30
0.0
 10
102.145000
 20
87.359946
 30
0.0
 10
101.297788
 20
88.827360
 30
0.0
 10
99.922500
 20
89.621383
 30
0.0
  0
SPLINE
  5
177
100
AcDbEntity
  8
View001
 62
7
100
AcDbSpline
 70
8
 71
3
 72
8
 73
4
 74
0
 40
0
 40
0
 40
0
 40
0
 40
1
 40
1
 40
1
 40
1
 10
99.922500
 20
89.621383
 30
0.0
 10
98.547212
 20
90.415406
 30
0.0
 10
96.852788
 20
90.415406
 30
0.0
 10
95.477500
 20
89.621383
 30
0.0
  0
SPLINE
  5
178
100
AcDbEntity
  8
View001
 62
7
100
AcDbSpline
 70
8
 71
3
 72
8
 73
4
 74
0
 40
0
 40
0
 40
0
 40
0
 40
1
 40
1
 40
1
 40
1
 10
95.477500
 20
89.621383
 30
0.0
 10
94.102212
 20
88.827360
 30
0.0
 10
93.255000
 20
87.359946
 30
0.0
 10
93.255000
 20
85.771900
 30
0.0
  0
LWPOLYLINE
  5
179
100
AcDbEntity
  8
View001
 62
7
100
AcDbPolyline
 90
2
 70
0
 10
93.255000
 20
43.861900
 30
0.0
 10
93.255000
 20
85.771900
 30
0.0
  0
SPLINE
  5
17a
100
AcDbEntity
  8
View001
 62
7
100
AcDbSpline
 70
8
 71
3
 72
8
 73
4
 74
0
 40
0
 40
0
 40
0
 40
0
 40
1
 40
1
 40
1
 40
1
 10
118.655000
 20
107.362000
 30
0.0
 10
118.655000
 20
105.773955
 30
0.0
 10
119.502212
 20
104.306540
 30
0.0
 10
120.877500
 20
103.512517
 30
0.0
  0
SPLINE
  5
17b
100
AcDbEntity
  8
View001
 62
7
100
AcDbSpline
 70
8
 71
3
 72
8
 73
4
 74
0
 40
0
 40
0
 40
0
 40
0
 40
1
 40
1
 40
1
 40
1
 10
120.877500
 20
103.512517
 30
0.0
 10
122.252788
 20
102.718494
 30
0.0
 10
123.947212
 20
102.718494
 30
0.0
 10
125.322500
 20
103.512517
 30
0.0
  0
SPLINE
  5
17c
100
AcDbEntity
  8
View001
 62
7
100
AcDbSpline
 70
8
 71
3
 72
8
 73
4
 74
0
 40
0
 40
0
 40
0
 40
0
 40
1
 40
1
 40
1
 40
1
 10
125.322500
 20
103.512517
 30
0.0
 10
126.697788
 20
104.306540
 30
0.0
 10
127.545000
 20
105.773955
 30
0.0
 10
127.545000
 20
107.362000
 30
0.0
  0
LWPOLYLINE
  5
17d
100
AcDbEntity
  8
View001
 62
7
100
AcDbPolyline
 90
2
 70
0
 10
102.145000
 20
43.861900
 30
0.0
 10
102.145000
 20
85.771900
 30
0.0
  0
SPLINE
  5
17e
100
AcDbEntity
  8
View001
 62
7
100
AcDbSpline
 70
8
 71
3
 72
8
 73
4
 74
0
 40
0
 40
0
 40
0
 40
0
 40
1
 40
1
 40
1
 40
1
 10
127.545000
 20
149.272000
 30
0.0
 10
127.545000
 20
150.860046
 30
0.0
 10
126.697788
 20
152.327460
 30
0.0
 10
125.322500
 20
153.121483
 30
0.0
  0
SPLINE
  5
17f
100
AcDbEntity
  8
View001
 62
7
100
AcDbSpline
 70
8
 71
3
 72
8
 73
4
 74
0
 40
0
 40
0
 40
0
 40
0
 40
1
 40
1
 40
1
 40
1
 10
125.322500
 20
153.121483
 30
0.0
 10
123.947212
 20
153.915506
 30
0.0
 10
122.252788
 20
153.915506
 30
0.0
 10
120.877500
 20
153.121483
 30
0.0
  0
SPLINE
  5
180
100
AcDbEntity
  8
View001
 62
7
100
AcDbSpline
 70
8
 71
3
 72
8
 73
4
 74
0
 40
0
 40
0
 40
0
 40
0
 40
1
 40
1
 40
1
 40
1
 10
120.877500
 20
153.121483
 30
0.0
 10
119.502212
 20
152.327460
 30
0.0
 10
118.655000
 20
150.860046
 30
0.0
 10
118.655000
 20
149.272000
 30
0.0
  0
LWPOLYLINE
  5
181
100
AcDbEntity
  8
View001
 62
7
100
AcDbPolyline
 90
2
 70
0
 10
118.655000
 20
107.362000
 30
0.0
 10
118.655000
 20
149.272000
 30
0.0
  0
SPLINE
  5
182
100
AcDbEntity
  8
View001
 62
7
100
AcDbSpline
 70
8
 71
3
 72
8
 73
4
 74
0
 40
0
 40
0
 40
0
 40
0
 40
1
 40
1
 40
1
 40
1
 10
144.055000
 20
107.362000
 30
0.0
 10
144.055000
 20
105.773955
 30
0.0
 10
144.902212
 20
104.306540
 30
0.0
 10
146.277500
 20
103.512517
 30
0.0
  0
SPLINE
  5
183
100
AcDbEntity
  8
View001
 62
7
100
AcDbSpline
 70
8
 71
3
 72
8
 73
4
 74
0
 40
0
 40
0
 40
0
 40
0
 40
1
 40
1
 40
1
 40
1
 10
146.277500
 20
103.512517
 30
0.0
 10
147.652788
 20
102.718494
 30
0.0
 10
149.347212
 20
102.718494
 30
0.0
 10
150.722500
 20
103.512517
 30
0.0
  0
SPLINE
  5
184
100
AcDbEntity
  8
View001
 62
7
100
AcDbSpline
 70
8
 71
3
 72
8
 73
4
 74
0
 40
0
 40
0
 40
0
 40
0
 40
1
 40
1
 40
1
 40
1
 10
150.722500
 20
103.512517
 30
0.0
 10
152.097788
 20
104.306540
 30
0.0
 10
152.945000
 20
105.773955
 30
0.0
 10
152.945000
 20
107.362000
 30
0.0
  0
LWPOLYLINE
  5
185
100
AcDbEntity
  8
View001
 62
7
100
AcDbPolyline
 90
2
 70
0
 10
127.545000
 20
107.362000
 30
0.0
 10
127.545000
 20
149.272000
 30
0.0
  0
SPLINE
  5
186
100
AcDbEntity
  8
View001
 62
7
100
AcDbSpline
 70
8
 71
3
 72
8
 73
4
 74
0
 40
0
 40
0
 40
0
 40
0
 40
1
 40
1
 40
1
 40
1
 10
152.945000
 20
149.272000
 30
0.0
 10
152.945000
 20
150.860046
 30
0.0
 10
152.097788
 20
152.327460
 30
0.0
 10
150.722500
 20
153.121483
 30
0.0
  0
SPLINE
  5
187
100
AcDbEntity
  8
View001
 62
7
100
AcDbSpline
 70
8
 71
3
 72
8
 73
4
 74
0
 40
0
 40
0
 40
0
 40
0
 40
1
 40
1
 40
1
 40
1
 10
150.722500
 20
153.121483
 30
0.0
 10
149.347212
 20
153.915506
 30
0.0
 10
147.652788
 20
153.915506
 30
0.0
 10
146.277500
 20
153.121483
 30
0.0
  0
SPLINE
  5
188
100
AcDbEntity
  8
View001
 62
7
100
AcDbSpline
 70
8
 71
3
 72
8
 73
4
 74
0
 40
0
 40
0
 40
0
 40
0
 40
1
 40
1
 40
1
 40
1
 10
146.277500
 20
153.121483
 30
0.0
 10
144.902212
 20
152.327460
 30
0.0
 10
144.055000
 20
150.860046
 30
0.0
 10
144.055000
 20
149.272000
 30
0.0
  0
LWPOLYLINE
  5
189
100
AcDbEntity
  8
View001
 62
7
100
AcDbPolyline
 90
2
 70
0
 10
144.055000
 20
107.362000
 30
0.0
 10
144.055000
 20
149.272000
 30
0.0
  0
SPLINE
  5
18a
100
AcDbEntity
  8
View001
 62
7
100
AcDbSpline
 70
8
 71
3
 72
8
 73
4
 74
0
 40
0
 40
0
 40
0
 40
0
 40
1
 40
1
 40
1
 40
1
 10
169.455000
 20
107.362000
 30
0.0
 10
169.455000
 20
105.773955
 30
0.0
 10
170.302212
 20
104.306540
 30
0.0
 10
171.677500
 20
103.512517
 30
0.0
  0
SPLINE
  5
18b
100
AcDbEntity
  8
View001
 62
7
100
AcDbSpline
 70
8
 71
3
 72
8
 73
4
 74
0
 40
0
 40
0
 40
0
 40
0
 40
1
 40
1
 40
1
 40
1
 10
171.677500
 20
103.512517
 30
0.0
 10
173.052788
 20
102.718494
 30
0.0
 10
174.747212
 20
102.718494
 30
0.0
 10
176.122500
 20
103.512517
 30
0.0
  0
SPLINE
  5
18c
100
AcDbEntity
  8
View001
 62
7
100
AcDbSpline
 70
8
 71
3
 72
8
 73
4
 74
0
 40
0
 40
0
 40
0
 40
0
 40
1
 40
1
 40
1
 40
1
 10
176.122500
 20
103.512517
 30
0.0
 10
177.497788
 20
104.306540
 30
0.0
 10
178.345000
 20
105.773955
 30
0.0
 10
178.345000
 20
107.362000
 30
0.0
  0
LWPOLYLINE
  5
18d
100
AcDbEntity
  8
View001
 62
7
100
AcDbPolyline
 90
2
 70
0
 10
152.945000
 20
107.362000
 30
0.0
 10
152.945000
 20
149.272000
 30
0.0
  0
SPLINE
  5
18e
100
AcDbEntity
  8
View001
 62
7
100
AcDbSpline
 70
8
 71
3
 72
8
 73
4
 74
0
 40
0
 40
0
 40
0
 40
0
 40
1
 40
1
 40
1
 40
1
 10
178.345000
 20
149.272000
 30
0.0
 10
178.345000
 20
150.860046
 30
0.0
 10
177.497788
 20
152.327460
 30
0.0
 10
176.122500
 20
153.121483
 30
0.0
  0
SPLINE
  5
18f
100
AcDbEntity
  8
View001
 62
7
100
AcDbSpline
 70
8
 71
3
 72
8
 73
4
 74
0
 40
0
 40
0
 40
0
 40
0
 40
1
 40
1
 40
1
 40
1
 10
176.122500
 20
153.121483
 30
0.0
 10
174.747212
 20
153.915506
 30
0.0
 10
173.052788
 20
153.915506
 30
0.0
 10
171.677500
 20
153.121483
 30
0.0
  0
SPLINE
  5
190
100
AcDbEntity
  8
View001
 62
7
100
AcDbSpline
 70
8
 71
3
 72
8
 73
4
 74
0
 40
0
 40
0
 40
0
 40
0
 40
1
 40
1
 40
1
 40
1
 10
171.677500
 20
153.121483
 30
0.0
 10
170.302212
 20
152.327460
 30
0.0
 10
169.455000
 20
150.860046
 30
0.0
 10
169.455000
 20
149.272000
 30
0.0
  0
LWPOLYLINE
  5
191
100
AcDbEntity
  8
View001
 62
7
100
AcDbPolyline
 90
2
 70
0
 10
169.455000
 20
107.362000
 30
0.0
 10
169.455000
 20
149.272000
 30
0.0
  0
SPLINE
  5
192
100
AcDbEntity
  8
View001
 62
7
100
AcDbSpline
 70
8
 71
3
 72
8
 73
4
 74
0
 40
0
 40
0
 40
0
 40
0
 40
1
 40
1
 40
1
 40
1
 10
93.255000
 20
107.362000
 30
0.0
 10
93.255000
 20
105.773955
 30
0.0
 10
94.102212
 20
104.306540
 30
0.0
 10
95.477500
 20
103.512517
 30
0.0
  0
SPLINE
  5
193
100
AcDbEntity
  8
View001
 62
7
100
AcDbSpline
 70
8
 71
3
 72
8
 73
4
 74
0
 40
0
 40
0
 40
0
 40
0
 40
1
 40
1
 40
1
 40
1
 10
95.477500
 20
103.512517
 30
0.0
 10
96.852788
 20
102.718494
 30
0.0
 10
98.547212
 20
102.718494
 30
0.0
 10
99.922500
 20
103.512517
 30
0.0
  0
SPLINE
  5
194
100
AcDbEntity
  8
View001
 62
7
100
AcDbSpline
 70
8
 71
3
 72
8
 73
4
 74
0
 40
0
 40
0
 40
0
 40
0
 40
1
 40
1
 40
1
 40
1
 10
99.922500
 20
103.512517
 30
0.0
 10
101.297788
 20
104.306540
 30
0.0
 10
102.145000
 20
105.773955
 30
0.0
 10
102.145000
 20
107.362000
 30
0.0
  0
LWPOLYLINE
  5
195
100
AcDbEntity
  8
View001
 62
7
100
AcDbPolyline
 90
2
 70
0
 10
178.345000
 20
107.362000
 30
0.0
 10
178.345000
 20
149.272000
 30
0.0
  0
SPLINE
  5
196
100
AcDbEntity
  8
View001
 62
7
100
AcDbSpline
 70
8
 71
3
 72
8
 73
4
 74
0
 40
0
 40
0
 40
0
 40
0
 40
1
 40
1
 40
1
 40
1
 10
102.145000
 20
149.272000
 30
0.0
 10
102.145000
 20
150.860046
 30
0.0
 10
101.297788
 20
152.327460
 30
0.0
 10
99.922500
 20
153.121483
 30
0.0
  0
SPLINE
  5
197
100
AcDbEntity
  8
View001
 62
7
100
AcDbSpline
 70
8
 71
3
 72
8
 73
4
 74
0
 40
0
 40
0
 40
0
 40
0
 40
1
 40
1
 40
1
 40
1
 10
99.922500
 20
153.121483
 30
0.0
 10
98.547212
 20
153.915506
 30
0.0
 10
96.852788
 20
153.915506
 30
0.0
 10
95.477500
 20
153.121483
 30
0.0
  0
SPLINE
  5
198
100
AcDbEntity
  8
View001
 62
7
100
AcDbSpline
 70
8
 71
3
 72
8
 73
4
 74
0
 40
0
 40
0
 40
0
 40
0
 40
1
 40
1
 40
1
 40
1
 10
95.477500
 20
153.121483
 30
0.0
 10
94.102212
 20
152.327460
 30
0.0
 10
93.255000
 20
150.860046
 30
0.0
 10
93.255000
 20
149.272000
 30
0.0
  0
LWPOLYLINE
  5
199
100
AcDbEntity
  8
View001
 62
7
100
AcDbPolyline
 90
2
 70
0
 10
93.255000
 20
107.362000
 30
0.0
 10
93.255000
 20
149.272000
 30
0.0
  0
SPLINE
  5
19a
100
AcDbEntity
  8
View001
 62
7
100
AcDbSpline
 70
8
 71
3
 72
8
 73
4
 74
0
 40
0
 40
0
 40
0
 40
0
 40
1
 40
1
 40
1
 40
1
 10
194.855000
 20
107.362000
 30
0.0
 10
194.855000
 20
105.773955
 30
0.0
 10
195.702212
 20
104.306540
 30
0.0
 10
197.077500
 20
103.512517
 30
0.0
  0
SPLINE
  5
19b
100
AcDbEntity
  8
View001
 62
7
100
AcDbSpline
 70
8
 71
3
 72
8
 73
4
 74
0
 40
0
 40
0
 40
0
 40
0
 40
1
 40
1
 40
1
 40
1
 10
197.077500
 20
103.512517
 30
0.0
 10
198.452788
 20
102.718494
 30
0.0
 10
200.147212
 20
102.718494
 30
0.0
 10
201.522500
 20
103.512517
 30
0.0
  0
SPLINE
  5
19c
100
AcDbEntity
  8
View001
 62
7
100
AcDbSpline
 70
8
 71
3
 72
8
 73
4
 74
0
 40
0
 40
0
 40
0
 40
0
 40
1
 40
1
 40
1
 40
1
 10
201.522500
 20
103.512517
 30
0.0
 10
202.897788
 20
104.306540
 30
0.0
 10
203.745000
 20
105.773955
 30
0.0
 10
203.745000
 20
107.362000
 30
0.0
  0
LWPOLYLINE
  5
19d
100
AcDbEntity
  8
View001
 62
7
100
AcDbPolyline
 90
2
 70
0
 10
102.145000
 20
107.362000
 30
0.0
 10
102.145000
 20
149.272000
 30
0.0
  0
SPLINE
  5
19e
100
AcDbEntity
  8
View001
 62
7
100
AcDbSpline
 70
8
 71
3
 72
8
 73
4
 74
0
 40
0
 40
0
 40
0
 40
0
 40
1
 40
1
 40
1
 40
1
 10
203.745000
 20
149.272000
 30
0.0
 10
203.745000
 20
150.860046
 30
0.0
 10
202.897788
 20
152.327460
 30
0.0
 10
201.522500
 20
153.121483
 30
0.0
  0
SPLINE
  5
19f
100
AcDbEntity
  8
View001
 62
7
100
AcDbSpline
 70
8
 71
3
 72
8
 73
4
 74
0
 40
0
 40
0
 40
0
 40
0
 40
1
 40
1
 40
1
 40
1
 10
201.522500
 20
153.121483
 30
0.0
 10
200.147212
 20
153.915506
 30
0.0
 10
198.452788
 20
153.915506
 30
0.0
 10
197.077500
 20
153.121483
 30
0.0
  0
SPLINE
  5
1a0
100
AcDbEntity
  8
View001
 62
7
100
AcDbSpline
 70
8
 71
3
 72
8
 73
4
 74
0
 40
0
 40
0
 40
0
 40
0
 40
1
 40
1
 40
1
 40
1
 10
197.077500
 20
153.121483
 30
0.0
 10
195.702212
 20
152.327460
 30
0.0
 10
194.855000
 20
150.860046
 30
0.0
 10
194.855000
 20
149.272000
 30
0.0
  0
LWPOLYLINE
  5
1a1
100
AcDbEntity
  8
View001
 62
7
100
AcDbPolyline
 90
2
 70
0
 10
194.855000
 20
107.362000
 30
0.0
 10
194.855000
 20
149.272000
 30
0.0
  0
LWPOLYLINE
  5
1a2
100
AcDbEntity
  8
View001
 62
7
100
AcDbPolyline
 90
2
 70
0
 10
203.745000
 20
107.362000
 30
0.0
 10
203.745000
 20
149.272000
 30
0.0
  0
LWPOLYLINE
  5
1a3
100
AcDbEntity
  8
View001
 62
1
100
AcDbPolyline
 90
2
 70
0
 10
72.300000
 20
22.450000
 30
0.0
 10
224.700000
 20
22.450000
 30
0.0
  0
LWPOLYLINE
  5
1a4
100
AcDbEntity
  8
View001
 62
1
100
AcDbPolyline
 90
2
 70
0
 10
228.191000
 20
26.716900
 30
0.0
 10
228.191000
 20
229.917000
 30
0.0
  0
LWPOLYLINE
  5
1a5
100
AcDbEntity
  8
View001
 62
1
100
AcDbPolyline
 90
2
 70
0
 10
68.808900
 20
229.917000
 30
0.0
 10
68.808900
 20
26.716900
 30
0.0
  0
ENDSEC
  0
SECTION
  2
OBJECTS
  0
DICTIONARY
  5
C
330
0
100
AcDbDictionary
  3
ACAD_GROUP
350
D
  3
ACAD_MLINESTYLE
350
17
  0
DICTIONARY
  5
D
330
C
100
AcDbDictionary
  0
DICTIONARY
  5
1A
330
C
100
AcDbDictionary
  0
DICTIONARY
  5
17
330
C
100
AcDbDictionary
  3
STANDARD
350
18
  0
DICTIONARY
  5
19
330
C
100
AcDbDictionary
  0
ENDSEC
  0
EOF
