999
FreeCAD v0.19 24276 (Git)
  0
SECTION
  2
HEADER
  9
$ACADVER
  1
AC1014
  9
$ACADMAINTVER
 70
     9
  9
$DWGCODEPAGE
  3
ANSI_1252
  9
$TEXTSTYLE
  7
STANDARD
  9
$DIMSTYLE
  2
STANDARD
  9
$DIMTXSTY
  7
STANDARD
  9
$CMLSTYLE
  2
STANDARD
  9
$PEXTMAX
 10
50
 20
50
 30
50
  9
$PEXTMIN
 10
0
 20
0
 30
0
  9
$HANDSEED
  5
FFFF
  0
ENDSEC
  0
SECTION
  2
CLASSES
  0
CLASS
  1
ACDBDICTIONARYWDFLT
  2
AcDbDictionaryWithDefault
  3
ObjectDBX Classes
 90
        0
280
     0
281
     0
  0
CLASS
  1
XRECORD
  2
AcDbXrecord
  3
ObjectDBX Classes
 90
        0
280
     0
281
     0
  0
CLASS
  1
LWPOLYLINE
  2
AcDbPolyline
  3
ObjectDBX Classes
 90
        0
280
     0
281
     1
  0
ENDSEC
  0
SECTION
  2
TABLES
  0
TABLE
  2
VPORT
  5
20
330
0
100
AcDbSymbolTable
 70
     1
  0
VPORT
  5
21
330
20
100
AcDbSymbolTableRecord
100
AcDbViewportTableRecord
  2
*ACTIVE
 70
     0
  0
ENDTAB
  0
TABLE
  2
LTYPE
  5
22
330
0
100
AcDbSymbolTable
 70
     1
  0
LTYPE
  5
23
330
21
100
AcDbSymbolTableRecord
100
AcDbLinetypeTableRecord
  2
BYBLOCK
 70
     0
  3

 72
    65
 73
     0
 40
0.0
  0
LTYPE
  5
24
330
21
100
AcDbSymbolTableRecord
100
AcDbLinetypeTableRecord
  2
BYLAYER
 70
     0
  3

 72
    65
 73
     0
 40
0.0
  0
LTYPE
  5
25
330
21
100
AcDbSymbolTableRecord
100
AcDbLinetypeTableRecord
  2
CONTINUOUS
 70
     0
  3
Solid line
 72
    65
 73
     0
 40
0.0
  0
ENDTAB
  0
TABLE
  2
LAYER
  5
A67
330
0
100
AcDbSymbolTable
 70
2
  0
LAYER
  5
A68
330
A67
100
AcDbSymbolTableRecord
100
AcDbLayerTableRecord
  2
0
 70
   0
 62
   7
  6
CONTINUOUS
  0
LAYER
  5
A69
330
A67
100
AcDbSymbolTableRecord
100
AcDbLayerTableRecord
  2
View001
 70
    0
 62
    7
  6
CONTINUOUS
  0
ENDTAB
  0
TABLE
  2
STYLE
  5
70
330
0
100
AcDbSymbolTable
 70
     2
  0
STYLE
  5
71
330
70
100
AcDbSymbolTableRecord
100
AcDbTextStyleTableRecord
  2
STANDARD
 70
     0
 40
0.0
 41
1.0
 50
0.0
 71
     0
 42
2.5
  3
arial.ttf
  4

  0
STYLE
  5
72
330
70
100
AcDbSymbolTableRecord
100
AcDbTextStyleTableRecord
  2
ANNOTATIVE
 70
     0
 40
0.0
 41
1.0
 50
0.0
 71
     0
 42
2.5
  3
arial.ttf
  4

  0
ENDTAB
  0
TABLE
  2
VIEW
  5
73
330
0
100
AcDbSymbolTable
 70
     0
  0
ENDTAB
  0
TABLE
  2
UCS
  5
74
330
0
100
AcDbSymbolTable
 70
     0
  0
ENDTAB
  0
TABLE
  2
APPID
  5
75
330
0
100
AcDbSymbolTable
 70
     2
  0
APPID
  5
76
330
75
100
AcDbSymbolTableRecord
100
AcDbRegAppTableRecord
  2
ACAD
 70
     0
  0
APPID
  5
77
330
75
100
AcDbSymbolTableRecord
100
AcDbRegAppTableRecord
  2
ACADANNOTATIVE
 70
     0
  0
ENDTAB
  0
TABLE
  2
DIMSTYLE
  5
78
330
0
100
AcDbSymbolTable
 70
     2
  0
DIMSTYLE
105
79
330
78
100
AcDbSymbolTableRecord
100
AcDbDimStyleTableRecord
  2
STANDARD
 70
     0
  3

  4

  5

  6

  7

 40
0.0
 41
2.5
 42
0.625
 43
3.75
 44
1.25
 45
0.0
 46
0.0
 47
0.0
 48
0.0
140
2.5
141
2.5
142
0.0
143
0.03937007874016
144
1.0
145
0.0
146
1.0
147
0.625
 71
     0
 72
     0
 73
     0
 74
     0
 75
     0
 76
     0
 77
     1
 78
     8
170
     0
171
     3
172
     1
173
     0
174
     0
175
     0
176
     0
177
     0
178
     0
270
     2
271
     2
272
     2
273
     2
274
     3
340
71
275
     0
280
     0
281
     0
282
     0
283
     0
284
     8
285
     0
286
     0
287
     3
288
     0
  0
ENDTAB
  0
TABLE
  2
BLOCK_RECORD
  5
A01
330
0
100
AcDbSymbolTable
  70
5
  0
BLOCK_RECORD
  5
A02
330
A01
100
AcDbSymbolTableRecord
100
AcDbBlockTableRecord
  2
*MODEL_SPACE
  0
BLOCK_RECORD
  5
A03
330
A01
100
AcDbSymbolTableRecord
100
AcDbBlockTableRecord
  2
*PAPER_SPACE
  0
ENDTAB
  0
ENDSEC
  0
SECTION
  2
BLOCKS
  0
BLOCK
  5
A04
330
A02
100
AcDbEntity
  8
0
100
AcDbBlockBegin
  2
*MODEL_SPACE
 70
   0
 10
0
 20
0
 30
0
  3
*MODEL_SPACE
  1
 
  0
ENDBLK
  5
A05
330
A02
100
AcDbEntity
  8
0
100
AcDbBlockEnd
  0
BLOCK
  5
A06
330
A03
100
AcDbEntity
 67
1
  8
0
100
AcDbBlockBegin
  2
*PAPER_SPACE
 70
   0
 10
0
 20
0
 30
0
  3
*PAPER_SPACE
  1
 
  0
ENDBLK
  5
A07
330
A03
100
AcDbEntity
 67
    1
  8
0
100
AcDbBlockEnd
  0
ENDSEC
  0
SECTION
  2
ENTITIES
  0
LINE
  5
A08
330
A02
100
AcDbEntity
  8
View001
100
AcDbLine
 10
69.125
 20
-19.9169
 30
0
 11
69.125
 21
18.1831
 31
0
  0
LINE
  5
A09
330
A02
100
AcDbEntity
  8
View001
100
AcDbLine
 10
72.3
 20
18.1831
 30
0
 11
69.125
 21
18.1831
 31
0
  0
LINE
  5
A0A
330
A02
100
AcDbEntity
  8
View001
100
AcDbLine
 10
72.3
 20
25.5937
 30
0
 11
72.3
 21
18.1831
 31
0
  0
SPLINE
  5
A0B
330
A02
100
AcDbEntity
  8
View001
100
AcDbSpline
210
0
220
0
230
1
 70
8
 71
3
 72
14
 73
10
 74
0
 40
0
 40
0
 40
0
 40
0
 40
0.512242
 40
0.512242
 40
0.512242
 40
1.04129
 40
1.04129
 40
1.04129
 40
2.14021
 40
2.14021
 40
2.14021
 40
2.14021
 10
73.8875
 20
26.7169
 30
0
 10
73.8882
 20
26.5451
 30
0
 10
73.8282
 20
26.3769
 30
0
 10
73.7318
 20
26.2361
 30
0
 10
73.6322
 20
26.0899
 30
0
 10
73.497
 20
25.9706
 30
0
 10
73.3478
 20
25.8771
 30
0
 10
73.0356
 20
25.6832
 30
0
 10
72.6655
 20
25.5944
 30
0
 10
72.3
 20
25.5937
 30
0
  0
ARC
  5
A0C
330
A02
100
AcDbEntity
  8
View001
100
AcDbCircle
 10
72.3
 20
26.7169
 30
0
 40
1.5875
100
AcDbArc
 50
1.02579e-12
 51
90
  0
SPLINE
  5
A0D
330
A02
100
AcDbEntity
  8
View001
100
AcDbSpline
210
0
220
0
230
1
 70
8
 71
3
 72
14
 73
10
 74
0
 40
0
 40
0
 40
0
 40
0
 40
1.09499
 40
1.09499
 40
1.09499
 40
1.62762
 40
1.62762
 40
1.62762
 40
2.1402
 40
2.1402
 40
2.1402
 40
2.1402
 10
71.1768
 20
26.7169
 30
0
 10
71.1775
 20
27.0811
 30
0
 10
71.2657
 20
27.4499
 30
0
 10
71.4581
 20
27.7613
 30
0
 10
71.5519
 20
27.9118
 30
0
 10
71.6717
 20
28.0482
 30
0
 10
71.8189
 20
28.1485
 30
0
 10
71.9597
 20
28.245
 30
0
 10
72.1281
 20
28.3051
 30
0
 10
72.3
 20
28.3044
 30
0
  0
LINE
  5
A0E
330
A02
100
AcDbEntity
  8
View001
100
AcDbLine
 10
65.3178
 20
26.7169
 30
0
 11
71.1768
 21
26.7169
 31
0
  0
LINE
  5
A0F
330
A02
100
AcDbEntity
  8
View001
100
AcDbLine
 10
64.2319
 20
23.7334
 30
0
 11
65.3178
 21
26.7169
 31
0
  0
LINE
  5
A10
330
A02
100
AcDbEntity
  8
View001
100
AcDbLine
 10
28.4296
 20
36.7643
 30
0
 11
64.2319
 21
23.7334
 31
0
  0
LINE
  5
A11
330
A02
100
AcDbEntity
  8
View001
100
AcDbLine
 10
51.9214
 20
224.356
 30
0
 11
28.4296
 21
36.7643
 31
0
  0
ARC
  5
A12
330
A02
100
AcDbEntity
  8
View001
100
AcDbCircle
 10
58.2222
 20
223.567
 30
0
 40
6.35
100
AcDbArc
 50
90
 51
172.862
  0
LINE
  5
A13
330
A02
100
AcDbEntity
  8
View001
100
AcDbLine
 10
58.2222
 20
229.917
 30
0
 11
238.778
 21
229.917
 31
0
  0
ARC
  5
A14
330
A02
100
AcDbEntity
  8
View001
100
AcDbCircle
 10
238.778
 20
223.567
 30
0
 40
6.35
100
AcDbArc
 50
7.13791
 51
90
  0
LINE
  5
A15
330
A02
100
AcDbEntity
  8
View001
100
AcDbLine
 10
245.079
 20
224.356
 30
0
 11
268.57
 21
36.7643
 31
0
  0
LINE
  5
A16
330
A02
100
AcDbEntity
  8
View001
100
AcDbLine
 10
268.57
 20
36.7643
 30
0
 11
232.768
 21
23.7334
 31
0
  0
LINE
  5
A17
330
A02
100
AcDbEntity
  8
View001
100
AcDbLine
 10
232.768
 20
23.7334
 30
0
 11
231.682
 21
26.7169
 31
0
  0
LINE
  5
A18
330
A02
100
AcDbEntity
  8
View001
100
AcDbLine
 10
225.823
 20
26.7169
 30
0
 11
231.682
 21
26.7169
 31
0
  0
SPLINE
  5
A19
330
A02
100
AcDbEntity
  8
View001
100
AcDbSpline
210
0
220
0
230
1
 70
8
 71
3
 72
14
 73
10
 74
0
 40
0
 40
0
 40
0
 40
0
 40
0.512242
 40
0.512242
 40
0.512242
 40
1.04129
 40
1.04129
 40
1.04129
 40
2.14021
 40
2.14021
 40
2.14021
 40
2.14021
 10
224.7
 20
28.3044
 30
0
 10
224.872
 20
28.3051
 30
0
 10
225.04
 20
28.2451
 30
0
 10
225.181
 20
28.1487
 30
0
 10
225.327
 20
28.0491
 30
0
 10
225.446
 20
27.9139
 30
0
 10
225.54
 20
27.7647
 30
0
 10
225.734
 20
27.4525
 30
0
 10
225.823
 20
27.0824
 30
0
 10
225.823
 20
26.7169
 30
0
  0
ARC
  5
A1A
330
A02
100
AcDbEntity
  8
View001
100
AcDbCircle
 10
224.7
 20
26.7169
 30
0
 40
1.5875
100
AcDbArc
 50
90
 51
180
  0
SPLINE
  5
A1B
330
A02
100
AcDbEntity
  8
View001
100
AcDbSpline
210
0
220
0
230
1
 70
8
 71
3
 72
14
 73
10
 74
0
 40
0
 40
0
 40
0
 40
0
 40
1.09977
 40
1.09977
 40
1.09977
 40
1.62907
 40
1.62907
 40
1.62907
 40
2.14021
 40
2.14021
 40
2.14021
 40
2.14021
 10
224.7
 20
25.5937
 30
0
 10
224.334
 20
25.5944
 30
0
 10
223.964
 20
25.6833
 30
0
 10
223.652
 20
25.8775
 30
0
 10
223.502
 20
25.9712
 30
0
 10
223.367
 20
26.0906
 30
0
 10
223.268
 20
26.237
 30
0
 10
223.172
 20
26.3776
 30
0
 10
223.112
 20
26.5454
 30
0
 10
223.112
 20
26.7169
 30
0
  0
LINE
  5
A1C
330
A02
100
AcDbEntity
  8
View001
100
AcDbLine
 10
224.7
 20
18.1831
 30
0
 11
224.7
 21
25.5937
 31
0
  0
LINE
  5
A1D
330
A02
100
AcDbEntity
  8
View001
100
AcDbLine
 10
224.7
 20
18.1831
 30
0
 11
227.875
 21
18.1831
 31
0
  0
LINE
  5
A1E
330
A02
100
AcDbEntity
  8
View001
100
AcDbLine
 10
227.875
 20
18.1831
 30
0
 11
227.875
 21
-19.9169
 31
0
  0
LINE
  5
A1F
330
A02
100
AcDbEntity
  8
View001
100
AcDbLine
 10
69.125
 20
-19.9169
 30
0
 11
227.875
 21
-19.9169
 31
0
  0
ARC
  5
A20
330
A02
100
AcDbEntity
  8
View001
100
AcDbCircle
 10
85
 20
-0.866894
 30
0
 40
4.445
100
AcDbArc
 50
90
 51
-90
  0
LINE
  5
A21
330
A02
100
AcDbEntity
  8
View001
100
AcDbLine
 10
85
 20
3.57811
 30
0
 11
135.8
 21
3.57811
 31
0
  0
ARC
  5
A22
330
A02
100
AcDbEntity
  8
View001
100
AcDbCircle
 10
135.8
 20
-0.866894
 30
0
 40
4.445
100
AcDbArc
 50
-90
 51
90
  0
LINE
  5
A23
330
A02
100
AcDbEntity
  8
View001
100
AcDbLine
 10
85
 20
-5.31189
 30
0
 11
135.8
 21
-5.31189
 31
0
  0
ARC
  5
A24
330
A02
100
AcDbEntity
  8
View001
100
AcDbCircle
 10
161.2
 20
-0.866894
 30
0
 40
4.445
100
AcDbArc
 50
90
 51
-90
  0
LINE
  5
A25
330
A02
100
AcDbEntity
  8
View001
100
AcDbLine
 10
161.2
 20
3.57811
 30
0
 11
212
 21
3.57811
 31
0
  0
ARC
  5
A26
330
A02
100
AcDbEntity
  8
View001
100
AcDbCircle
 10
212
 20
-0.866894
 30
0
 40
4.445
100
AcDbArc
 50
-90
 51
90
  0
LINE
  5
A27
330
A02
100
AcDbEntity
  8
View001
100
AcDbLine
 10
161.2
 20
-5.31189
 30
0
 11
212
 21
-5.31189
 31
0
  0
ARC
  5
A28
330
A02
100
AcDbEntity
  8
View001
100
AcDbCircle
 10
199.3
 20
170.862
 30
0
 40
4.445
100
AcDbArc
 50
180
 51
0
  0
LINE
  5
A29
330
A02
100
AcDbEntity
  8
View001
100
AcDbLine
 10
194.855
 20
170.862
 30
0
 11
194.855
 21
212.772
 31
0
  0
ARC
  5
A2A
330
A02
100
AcDbEntity
  8
View001
100
AcDbCircle
 10
199.3
 20
212.772
 30
0
 40
4.445
100
AcDbArc
 50
0
 51
180
  0
LINE
  5
A2B
330
A02
100
AcDbEntity
  8
View001
100
AcDbLine
 10
203.745
 20
170.862
 30
0
 11
203.745
 21
212.772
 31
0
  0
ARC
  5
A2C
330
A02
100
AcDbEntity
  8
View001
100
AcDbCircle
 10
173.9
 20
170.862
 30
0
 40
4.445
100
AcDbArc
 50
-180
 51
3.66354e-13
  0
LINE
  5
A2D
330
A02
100
AcDbEntity
  8
View001
100
AcDbLine
 10
169.455
 20
170.862
 30
0
 11
169.455
 21
212.772
 31
0
  0
ARC
  5
A2E
330
A02
100
AcDbEntity
  8
View001
100
AcDbCircle
 10
173.9
 20
212.772
 30
0
 40
4.445
100
AcDbArc
 50
0
 51
180
  0
LINE
  5
A2F
330
A02
100
AcDbEntity
  8
View001
100
AcDbLine
 10
178.345
 20
170.862
 30
0
 11
178.345
 21
212.772
 31
0
  0
ARC
  5
A30
330
A02
100
AcDbEntity
  8
View001
100
AcDbCircle
 10
148.5
 20
170.862
 30
0
 40
4.445
100
AcDbArc
 50
-180
 51
3.66354e-13
  0
LINE
  5
A31
330
A02
100
AcDbEntity
  8
View001
100
AcDbLine
 10
144.055
 20
170.862
 30
0
 11
144.055
 21
212.772
 31
0
  0
ARC
  5
A32
330
A02
100
AcDbEntity
  8
View001
100
AcDbCircle
 10
148.5
 20
212.772
 30
0
 40
4.445
100
AcDbArc
 50
0
 51
180
  0
LINE
  5
A33
330
A02
100
AcDbEntity
  8
View001
100
AcDbLine
 10
152.945
 20
170.862
 30
0
 11
152.945
 21
212.772
 31
0
  0
ARC
  5
A34
330
A02
100
AcDbEntity
  8
View001
100
AcDbCircle
 10
123.1
 20
170.862
 30
0
 40
4.445
100
AcDbArc
 50
180
 51
0
  0
LINE
  5
A35
330
A02
100
AcDbEntity
  8
View001
100
AcDbLine
 10
118.655
 20
170.862
 30
0
 11
118.655
 21
212.772
 31
0
  0
ARC
  5
A36
330
A02
100
AcDbEntity
  8
View001
100
AcDbCircle
 10
123.1
 20
212.772
 30
0
 40
4.445
100
AcDbArc
 50
0
 51
180
  0
LINE
  5
A37
330
A02
100
AcDbEntity
  8
View001
100
AcDbLine
 10
127.545
 20
170.862
 30
0
 11
127.545
 21
212.772
 31
0
  0
ARC
  5
A38
330
A02
100
AcDbEntity
  8
View001
100
AcDbCircle
 10
97.7
 20
170.862
 30
0
 40
4.445
100
AcDbArc
 50
-180
 51
3.66354e-13
  0
LINE
  5
A39
330
A02
100
AcDbEntity
  8
View001
100
AcDbLine
 10
93.255
 20
170.862
 30
0
 11
93.255
 21
212.772
 31
0
  0
ARC
  5
A3A
330
A02
100
AcDbEntity
  8
View001
100
AcDbCircle
 10
97.7
 20
212.772
 30
0
 40
4.445
100
AcDbArc
 50
0
 51
180
  0
LINE
  5
A3B
330
A02
100
AcDbEntity
  8
View001
100
AcDbLine
 10
102.145
 20
170.862
 30
0
 11
102.145
 21
212.772
 31
0
  0
ARC
  5
A3C
330
A02
100
AcDbEntity
  8
View001
100
AcDbCircle
 10
148.5
 20
43.8619
 30
0
 40
4.445
100
AcDbArc
 50
180
 51
0
  0
LINE
  5
A3D
330
A02
100
AcDbEntity
  8
View001
100
AcDbLine
 10
144.055
 20
43.8619
 30
0
 11
144.055
 21
85.7719
 31
0
  0
ARC
  5
A3E
330
A02
100
AcDbEntity
  8
View001
100
AcDbCircle
 10
148.5
 20
85.7719
 30
0
 40
4.445
100
AcDbArc
 50
0
 51
180
  0
LINE
  5
A3F
330
A02
100
AcDbEntity
  8
View001
100
AcDbLine
 10
152.945
 20
43.8619
 30
0
 11
152.945
 21
85.7719
 31
0
  0
ARC
  5
A40
330
A02
100
AcDbEntity
  8
View001
100
AcDbCircle
 10
173.9
 20
43.8619
 30
0
 40
4.445
100
AcDbArc
 50
180
 51
0
  0
LINE
  5
A41
330
A02
100
AcDbEntity
  8
View001
100
AcDbLine
 10
169.455
 20
43.8619
 30
0
 11
169.455
 21
85.7719
 31
0
  0
ARC
  5
A42
330
A02
100
AcDbEntity
  8
View001
100
AcDbCircle
 10
173.9
 20
85.7719
 30
0
 40
4.445
100
AcDbArc
 50
0
 51
180
  0
LINE
  5
A43
330
A02
100
AcDbEntity
  8
View001
100
AcDbLine
 10
178.345
 20
43.8619
 30
0
 11
178.345
 21
85.7719
 31
0
  0
ARC
  5
A44
330
A02
100
AcDbEntity
  8
View001
100
AcDbCircle
 10
199.3
 20
43.8619
 30
0
 40
4.445
100
AcDbArc
 50
180
 51
0
  0
LINE
  5
A45
330
A02
100
AcDbEntity
  8
View001
100
AcDbLine
 10
194.855
 20
43.8619
 30
0
 11
194.855
 21
85.7719
 31
0
  0
ARC
  5
A46
330
A02
100
AcDbEntity
  8
View001
100
AcDbCircle
 10
199.3
 20
85.7719
 30
0
 40
4.445
100
AcDbArc
 50
0
 51
180
  0
LINE
  5
A47
330
A02
100
AcDbEntity
  8
View001
100
AcDbLine
 10
203.745
 20
43.8619
 30
0
 11
203.745
 21
85.7719
 31
0
  0
ARC
  5
A48
330
A02
100
AcDbEntity
  8
View001
100
AcDbCircle
 10
123.1
 20
43.8619
 30
0
 40
4.445
100
AcDbArc
 50
180
 51
0
  0
LINE
  5
A49
330
A02
100
AcDbEntity
  8
View001
100
AcDbLine
 10
118.655
 20
43.8619
 30
0
 11
118.655
 21
85.7719
 31
0
  0
ARC
  5
A4A
330
A02
100
AcDbEntity
  8
View001
100
AcDbCircle
 10
123.1
 20
85.7719
 30
0
 40
4.445
100
AcDbArc
 50
0
 51
180
  0
LINE
  5
A4B
330
A02
100
AcDbEntity
  8
View001
100
AcDbLine
 10
127.545
 20
43.8619
 30
0
 11
127.545
 21
85.7719
 31
0
  0
ARC
  5
A4C
330
A02
100
AcDbEntity
  8
View001
100
AcDbCircle
 10
97.7
 20
43.8619
 30
0
 40
4.445
100
AcDbArc
 50
180
 51
0
  0
LINE
  5
A4D
330
A02
100
AcDbEntity
  8
View001
100
AcDbLine
 10
93.255
 20
43.8619
 30
0
 11
93.255
 21
85.7719
 31
0
  0
ARC
  5
A4E
330
A02
100
AcDbEntity
  8
View001
100
AcDbCircle
 10
97.7
 20
85.7719
 30
0
 40
4.445
100
AcDbArc
 50
0
 51
180
  0
LINE
  5
A4F
330
A02
100
AcDbEntity
  8
View001
100
AcDbLine
 10
102.145
 20
43.8619
 30
0
 11
102.145
 21
85.7719
 31
0
  0
ARC
  5
A50
330
A02
100
AcDbEntity
  8
View001
100
AcDbCircle
 10
123.1
 20
107.362
 30
0
 40
4.445
100
AcDbArc
 50
180
 51
0
  0
LINE
  5
A51
330
A02
100
AcDbEntity
  8
View001
100
AcDbLine
 10
118.655
 20
107.362
 30
0
 11
118.655
 21
149.272
 31
0
  0
ARC
  5
A52
330
A02
100
AcDbEntity
  8
View001
100
AcDbCircle
 10
123.1
 20
149.272
 30
0
 40
4.445
100
AcDbArc
 50
0
 51
180
  0
LINE
  5
A53
330
A02
100
AcDbEntity
  8
View001
100
AcDbLine
 10
127.545
 20
107.362
 30
0
 11
127.545
 21
149.272
 31
0
  0
ARC
  5
A54
330
A02
100
AcDbEntity
  8
View001
100
AcDbCircle
 10
148.5
 20
107.362
 30
0
 40
4.445
100
AcDbArc
 50
180
 51
0
  0
LINE
  5
A55
330
A02
100
AcDbEntity
  8
View001
100
AcDbLine
 10
144.055
 20
107.362
 30
0
 11
144.055
 21
149.272
 31
0
  0
ARC
  5
A56
330
A02
100
AcDbEntity
  8
View001
100
AcDbCircle
 10
148.5
 20
149.272
 30
0
 40
4.445
100
AcDbArc
 50
0
 51
180
  0
LINE
  5
A57
330
A02
100
AcDbEntity
  8
View001
100
AcDbLine
 10
152.945
 20
107.362
 30
0
 11
152.945
 21
149.272
 31
0
  0
ARC
  5
A58
330
A02
100
AcDbEntity
  8
View001
100
AcDbCircle
 10
173.9
 20
107.362
 30
0
 40
4.445
100
AcDbArc
 50
180
 51
-1.83177e-13
  0
LINE
  5
A59
330
A02
100
AcDbEntity
  8
View001
100
AcDbLine
 10
169.455
 20
107.362
 30
0
 11
169.455
 21
149.272
 31
0
  0
ARC
  5
A5A
330
A02
100
AcDbEntity
  8
View001
100
AcDbCircle
 10
173.9
 20
149.272
 30
0
 40
4.445
100
AcDbArc
 50
-3.66354e-13
 51
180
  0
LINE
  5
A5B
330
A02
100
AcDbEntity
  8
View001
100
AcDbLine
 10
178.345
 20
107.362
 30
0
 11
178.345
 21
149.272
 31
0
  0
ARC
  5
A5C
330
A02
100
AcDbEntity
  8
View001
100
AcDbCircle
 10
97.7
 20
107.362
 30
0
 40
4.445
100
AcDbArc
 50
180
 51
0
  0
LINE
  5
A5D
330
A02
100
AcDbEntity
  8
View001
100
AcDbLine
 10
93.255
 20
107.362
 30
0
 11
93.255
 21
149.272
 31
0
  0
ARC
  5
A5E
330
A02
100
AcDbEntity
  8
View001
100
AcDbCircle
 10
97.7
 20
149.272
 30
0
 40
4.445
100
AcDbArc
 50
0
 51
-180
  0
LINE
  5
A5F
330
A02
100
AcDbEntity
  8
View001
100
AcDbLine
 10
102.145
 20
107.362
 30
0
 11
102.145
 21
149.272
 31
0
  0
ARC
  5
A60
330
A02
100
AcDbEntity
  8
View001
100
AcDbCircle
 10
199.3
 20
107.362
 30
0
 40
4.445
100
AcDbArc
 50
180
 51
0
  0
LINE
  5
A61
330
A02
100
AcDbEntity
  8
View001
100
AcDbLine
 10
194.855
 20
107.362
 30
0
 11
194.855
 21
149.272
 31
0
  0
ARC
  5
A62
330
A02
100
AcDbEntity
  8
View001
100
AcDbCircle
 10
199.3
 20
149.272
 30
0
 40
4.445
100
AcDbArc
 50
0
 51
-180
  0
LINE
  5
A63
330
A02
100
AcDbEntity
  8
View001
100
AcDbLine
 10
203.745
 20
107.362
 30
0
 11
203.745
 21
149.272
 31
0
  0
LINE
  5
A64
330
A02
100
AcDbEntity
  8
View001
100
AcDbLine
 10
72.3
 20
22.45
 30
0
 11
224.7
 21
22.45
 31
0
  0
LINE
  5
A65
330
A02
100
AcDbEntity
  8
View001
100
AcDbLine
 10
228.191
 20
26.7169
 30
0
 11
228.191
 21
229.917
 31
0
  0
LINE
  5
A66
330
A02
100
AcDbEntity
  8
View001
100
AcDbLine
 10
68.8089
 20
229.917
 30
0
 11
68.8089
 21
26.7169
 31
0
  0
ENDSEC
  0
SECTION
  2
OBJECTS
  0
DICTIONARY
  5
F000
330
0
100
AcDbDictionary
  3
ACAD_GROUP
350
F001
  0
DICTIONARY
  5
F001
330
F000
100
AcDbDictionary
  0
ENDSEC
  0
EOF